<?xml version="1.0" encoding="UTF-8"?>
<svg version="1.1" xmlns="http://www.w3.org/2000/svg" width="512" height="512">
<path d="M0 0 C0.97090576 0.56960449 1.94181152 1.13920898 2.94213867 1.72607422 C4.05081299 2.36851074 5.1594873 3.01094727 6.30175781 3.67285156 C7.48799532 4.37528403 8.67410907 5.07792554 9.86010742 5.78076172 C11.0905053 6.49882004 12.32155404 7.21576417 13.55322266 7.93164062 C16.10337875 9.41566719 18.64995901 10.90557481 21.1940918 12.39990234 C24.97168829 14.61580556 28.7648835 16.80379103 32.56323242 18.98388672 C33.45995918 19.49887222 33.45995918 19.49887222 34.37480164 20.02426147 C35.25541008 20.52997177 35.25541008 20.52997177 36.15380859 21.04589844 C39.45475885 22.94154904 42.75457992 24.83907147 46.05151367 26.74169922 C46.94684814 27.25780762 47.84218262 27.77391602 48.76464844 28.30566406 C50.55948806 29.3670974 52.31260997 30.49909675 54.04760742 31.65576172 C55.03760742 31.65576172 56.02760742 31.65576172 57.04760742 31.65576172 C57.44028809 30.94033203 57.83296875 30.22490234 58.23754883 29.48779297 C59.72000668 26.79384076 61.20794461 24.10300745 62.69946289 21.4140625 C63.65169988 19.69353797 64.59777191 17.96960598 65.54370117 16.24560547 C74.955051 -0.69482422 74.955051 -0.69482422 80.67260742 -2.46923828 C84.05173948 -2.34408524 85.29424742 -2.15069703 88.04760742 -0.34423828 C89.640625 1.85693359 89.640625 1.85693359 91.19213867 4.62451172 C91.77922607 5.65785645 92.36631348 6.69120117 92.97119141 7.75585938 C93.59453369 8.87782715 94.21787598 9.99979492 94.86010742 11.15576172 C95.51926009 12.32483114 96.17951567 13.49327934 96.84082031 14.66113281 C97.86990008 16.47945991 98.89783323 18.29837021 99.92155457 20.11972046 C102.91054754 25.43656601 105.97842352 30.70424673 109.05541992 35.97070312 C132.24598412 75.75026656 132.24598412 75.75026656 126.79760742 96.71826172 C122.28779714 109.7058779 114.43966679 121.62988644 107.47875977 133.41333008 C98.41082572 148.48908725 98.41082572 148.48908725 97.04760742 165.65576172 C99.36715487 173.93063899 103.34123477 181.24986153 107.61010742 188.65576172 C108.22273437 189.73212891 108.83536133 190.80849609 109.46655273 191.91748047 C110.71571052 194.10853046 111.96877292 196.29735921 113.22583008 198.48388672 C114.94224375 201.47231427 116.64353977 204.46880037 118.34057617 207.46826172 C119.32550188 209.19785647 120.31113531 210.92704849 121.29760742 212.65576172 C121.97738647 213.85652344 121.97738647 213.85652344 122.67089844 215.08154297 C124.698967 219.00607206 124.698967 219.00607206 128.04760742 221.65576172 C128.16064209 220.929375 128.27367676 220.20298828 128.39013672 219.45458984 C129.07716582 216.52993272 130.07146226 214.47079984 131.56713867 211.87451172 C132.08945068 210.96000244 132.6117627 210.04549316 133.14990234 209.10327148 C133.71427002 208.13059326 134.2786377 207.15791504 134.86010742 206.15576172 C135.43672119 205.14634521 136.01333496 204.13692871 136.60742188 203.09692383 C139.54332606 197.96399201 142.51492426 192.85286635 145.50854492 187.75341797 C146.05148193 186.82142578 146.59441895 185.88943359 147.15380859 184.92919922 C148.18145756 183.16742462 149.21763216 181.41058574 150.26367188 179.65966797 C154.87140034 171.75391768 157.54466274 163.6960103 155.58276367 154.46972656 C153.60463319 147.41897895 150.42786446 141.45147236 146.73510742 135.15576172 C146.17887695 134.18767578 145.62264648 133.21958984 145.04956055 132.22216797 C142.84990736 128.40670435 140.63762759 124.6059435 138.31420898 120.86425781 C137.77119141 119.98850098 137.22817383 119.11274414 136.66870117 118.21044922 C136.17942139 117.43685059 135.6901416 116.66325195 135.18603516 115.86621094 C133.27525083 112.15610128 133.34055086 109.75668977 134.04760742 105.65576172 C135.61010742 103.15576172 135.61010742 103.15576172 138.04760742 101.65576172 C141.48510742 101.09326172 141.48510742 101.09326172 145.04760742 101.65576172 C150.61290627 106.00424099 153.42708175 112.29483214 156.73510742 118.40576172 C157.98892346 120.68387231 159.24413459 122.96121563 160.50073242 125.23779297 C161.10981445 126.34461426 161.71889648 127.45143555 162.34643555 128.59179688 C164.49648143 132.46422453 166.7199304 136.28736051 168.98510742 140.09326172 C175.10911209 150.4115982 181.07830469 160.81877705 187.06567383 171.21679688 C189.70291362 175.79282049 192.3470925 180.36481916 194.9909668 184.93701172 C197.46873737 189.2261353 199.9389848 193.51956561 202.40844727 197.81347656 C203.88045445 200.36592035 205.3626999 202.91205008 206.84838867 205.45654297 C208.99432161 209.15093037 211.05139538 212.8781766 213.04760742 216.65576172 C213.75530273 217.97833984 213.75530273 217.97833984 214.47729492 219.32763672 C217.2357671 225.45334736 217.44496967 231.53417702 217.54760742 238.15576172 C217.56637939 239.02225342 217.58515137 239.88874512 217.60449219 240.78149414 C217.49070748 252.29108857 212.29575555 261.5789628 206.67260742 271.34326172 C206.06336426 272.41543945 205.45412109 273.48761719 204.82641602 274.59228516 C202.9111429 277.95322351 200.98173653 281.30564344 199.04760742 284.65576172 C198.42370117 285.73873535 197.79979492 286.82170898 197.15698242 287.9375 C193.15867871 294.86628314 189.12061859 301.77065223 185.04760742 308.65576172 C184.60594238 309.4050293 184.16427734 310.15429688 183.70922852 310.92626953 C182.60119991 312.79960988 181.48377684 314.66677345 180.36010742 316.53076172 C179.48805664 317.98095703 179.48805664 317.98095703 178.59838867 319.46044922 C177.04760742 321.65576172 177.04760742 321.65576172 174.04760742 323.65576172 C170.92030334 323.91645813 170.92030334 323.91645813 167.01269531 323.93041992 C165.94367477 323.93808632 165.94367477 323.93808632 164.85305786 323.94590759 C162.49204133 323.95982679 160.13131643 323.95884338 157.77026367 323.95654297 C156.1217793 323.96043213 154.47329593 323.96476726 152.82481384 323.9695282 C149.36218021 323.97699795 145.89964847 323.97669625 142.43701172 323.97143555 C138.02921092 323.96567728 133.62183532 323.98247913 129.21410465 324.00578022 C125.80370192 324.02062561 122.39339861 324.02137406 118.98296928 324.01827049 C117.36009322 324.01877954 115.73721097 324.02393789 114.11436653 324.03408241 C97.90438547 324.12287989 83.08932068 321.76581628 70.66870117 310.41748047 C67.34900809 306.80981401 64.69679331 302.76724576 62.04760742 298.65576172 C61.60932617 298.02283203 61.17104492 297.38990234 60.71948242 296.73779297 C57.74314191 292.15800141 57.26786543 288.94067969 58.04760742 283.65576172 C60.11010742 281.09326172 60.11010742 281.09326172 63.04760742 279.65576172 C66.90195522 279.65576172 69.11794126 279.85017092 72.06713867 282.40576172 C74.09835677 284.71341778 75.62698467 287.00149856 77.17260742 289.65576172 C77.91897461 290.92419922 77.91897461 290.92419922 78.68041992 292.21826172 C80.04760742 294.65576172 80.04760742 294.65576172 80.97729492 296.84326172 C82.35544285 299.17705967 83.56561882 299.62307718 86.04760742 300.65576172 C86.85198242 301.06955078 87.65635742 301.48333984 88.48510742 301.90966797 C89.75354492 302.55742188 89.75354492 302.55742188 91.04760742 303.21826172 C91.89323242 303.65267578 92.73885742 304.08708984 93.61010742 304.53466797 C97.70257724 306.41694175 101.14714779 306.7794114 105.64233398 306.76928711 C106.76319397 306.76921158 107.88405396 306.76913605 109.03887939 306.76905823 C110.24316589 306.76389694 111.44745239 306.75873566 112.68823242 306.75341797 C113.92555115 306.75200302 115.16286987 306.75058807 116.43768311 306.74913025 C119.71905683 306.74448281 123.00038116 306.73550519 126.28173828 306.72442627 C129.63337753 306.71417692 132.98501891 306.70971031 136.33666992 306.70458984 C142.90700173 306.69356197 149.47730054 306.67682468 156.04760742 306.65576172 C155.65721786 305.98895386 155.26682831 305.322146 154.86460876 304.63513184 C153.05860641 301.5489103 151.2542725 298.46171633 149.44995117 295.37451172 C148.83615601 294.32618164 148.22236084 293.27785156 147.58996582 292.19775391 C143.00509885 284.34921143 138.52560277 276.44732195 134.13925171 268.4861908 C129.89547193 260.83490579 125.15639764 254.02464861 117.04760742 250.21826172 C116.07823242 249.74517578 115.10885742 249.27208984 114.11010742 248.78466797 C106.94009983 246.14164221 99.53190728 246.52275565 91.98901367 246.55810547 C90.84472397 246.55952042 89.70043427 246.56093536 88.52146912 246.56239319 C84.88432141 246.56796871 81.24723637 246.58051674 77.61010742 246.59326172 C75.13680102 246.59827988 72.66349365 246.60284224 70.19018555 246.60693359 C64.1426383 246.61793012 58.09512734 246.63464384 52.04760742 246.65576172 C52.56452148 247.51298828 53.08143555 248.37021484 53.61401367 249.25341797 C54.27272461 250.39681641 54.93143555 251.54021484 55.61010742 252.71826172 C56.27139648 253.84361328 56.93268555 254.96896484 57.61401367 256.12841797 C59.27873552 260.2244502 59.10453358 262.41243749 58.04760742 266.65576172 C56.47859108 269.00928623 55.37423332 269.53217354 52.73510742 270.53076172 C48.85358186 270.71129779 47.30802217 269.83599034 44.04760742 267.65576172 C41.69836139 264.44839856 39.89777566 260.98103818 38.04760742 257.46826172 C36.90095081 255.365727 35.75245529 253.26419431 34.60229492 251.16357422 C34.01544922 250.08237305 33.42860352 249.00117188 32.82397461 247.88720703 C30.03625421 242.81597735 27.10663161 237.83081279 24.17260742 232.84326172 C22.99622963 230.83449636 21.82045528 228.82537751 20.64526367 226.81591797 C20.05503418 225.80674316 19.46480469 224.79756836 18.85668945 223.7578125 C13.84920523 215.17142997 8.90011946 206.55104815 3.9387207 197.93798828 C0.81080594 192.5091623 -2.32097706 187.08256891 -5.45239258 181.65576172 C-6.70241137 179.48910589 -7.95241136 177.32243922 -9.20239258 175.15576172 C-9.82114258 174.08326172 -10.43989258 173.01076172 -11.07739258 171.90576172 C-31.70239258 136.15576172 -31.70239258 136.15576172 -33.58056641 132.90014648 C-34.81985525 130.75212126 -36.05927398 128.60417097 -37.29882812 126.45629883 C-40.23441825 121.36920623 -43.1686493 116.28134325 -46.09829712 111.19082642 C-47.48567353 108.78032424 -48.87378882 106.37024796 -50.26196289 103.96020508 C-51.24413073 102.25432204 -52.22522642 100.54782186 -53.20629883 98.84130859 C-53.79926758 97.81199219 -54.39223633 96.78267578 -55.00317383 95.72216797 C-55.52564697 94.814104 -56.04812012 93.90604004 -56.58642578 92.97045898 C-57.65217223 91.16449971 -58.7892001 89.40055043 -59.95239258 87.65576172 C-60.25317383 85.49951172 -60.25317383 85.49951172 -60.26489258 83.15576172 C-60.28165039 82.38232422 -60.2984082 81.60888672 -60.31567383 80.81201172 C-59.8575962 78.09309936 -59.08483074 77.36106291 -56.95239258 75.65576172 C-55.03511047 75.29499817 -55.03511047 75.29499817 -52.84814453 75.31518555 C-51.61720818 75.31552544 -51.61720818 75.31552544 -50.36140442 75.31587219 C-49.48006332 75.33135605 -48.59872223 75.3468399 -47.69067383 75.36279297 C-46.33198433 75.36916023 -46.33198433 75.36916023 -44.94584656 75.37565613 C-42.05189325 75.39245324 -39.15863552 75.43010722 -36.26489258 75.46826172 C-34.30331409 75.48330723 -32.34172469 75.49699587 -30.38012695 75.50927734 C-25.57061402 75.54236015 -20.76162124 75.5941495 -15.95239258 75.65576172 C-15.9568338 74.76262268 -15.96127502 73.86948364 -15.96585083 72.94927979 C-16.00592244 64.53290286 -16.03637441 56.11655796 -16.05601692 47.70010757 C-16.0664548 43.37310975 -16.08061408 39.04619074 -16.10327148 34.71923828 C-16.12499971 30.54360936 -16.13696118 26.36805627 -16.14214706 22.19237518 C-16.14584285 20.59916744 -16.15305977 19.00596386 -16.16385269 17.41278839 C-16.17836743 15.18151374 -16.18037054 12.95055254 -16.17944336 10.71923828 C-16.18388458 9.44904846 -16.18832581 8.17885864 -16.19290161 6.87017822 C-15.96509554 3.82553747 -15.62308275 2.16738012 -13.95239258 -0.34423828 C-9.66466293 -3.67913912 -4.59771512 -2.09336141 0 0 Z M0.04760742 19.65576172 C0.04760742 38.13576172 0.04760742 56.61576172 0.04760742 75.65576172 C7.63760742 75.98576172 15.22760742 76.31576172 23.04760742 76.65576172 C31.41479492 78.41357422 31.41479492 78.41357422 35.04760742 79.65576172 C35.31573242 78.59099609 35.58385742 77.52623047 35.86010742 76.42919922 C38.30615133 67.21359812 41.42759122 59.41001629 46.47338867 51.31591797 C48.21736832 48.88407045 48.21736832 48.88407045 48.04760742 46.65576172 C47.37930908 46.28402832 46.71101074 45.91229492 46.02246094 45.52929688 C22.25674719 32.29780659 22.25674719 32.29780659 11.35253906 25.765625 C7.63529371 23.54696511 3.93548826 21.59970214 0.04760742 19.65576172 Z M81.04760742 22.65576172 C74.11881243 34.49065041 67.20200574 46.33287629 60.36010742 58.21826172 C59.86800781 59.06670654 59.3759082 59.91515137 58.86889648 60.78930664 C53.80053933 69.62523719 49.15933245 78.38971408 51.55908203 88.89477539 C53.32549537 94.99475675 55.7077782 100.28117196 58.86010742 105.78076172 C59.56502319 107.03373047 59.56502319 107.03373047 60.28417969 108.31201172 C61.85998383 111.10026773 63.45310886 113.87815823 65.04760742 116.65576172 C65.64734375 117.70989258 66.24708008 118.76402344 66.86499023 119.85009766 C68.7292632 123.12396651 70.60479286 126.39108316 72.48510742 129.65576172 C73.07590088 130.68846191 73.66669434 131.72116211 74.27539062 132.78515625 C74.83830811 133.75308105 75.40122559 134.72100586 75.98120117 135.71826172 C76.72454712 137.00410156 76.72454712 137.00410156 77.48291016 138.31591797 C79.1122085 140.75236599 80.91147624 142.65777106 83.04760742 144.65576172 C83.73983398 143.21910156 83.73983398 143.21910156 84.44604492 141.75341797 C88.03589352 134.39231139 91.79375425 127.19387152 95.98510742 120.15576172 C96.40131348 119.45668701 96.81751953 118.7576123 97.24633789 118.03735352 C98.08979116 116.62254441 98.93354076 115.20791193 99.77758789 113.79345703 C101.89858422 110.22339863 103.98441228 106.63449278 106.04760742 103.03076172 C106.60822876 102.07266602 106.60822876 102.07266602 107.18017578 101.09521484 C111.78349001 93.00718854 113.78696487 84.29589364 111.38647461 75.13183594 C108.67497383 67.60229569 105.00558573 60.89821752 100.92260742 54.03076172 C100.26043213 52.90226807 99.59825684 51.77377441 98.91601562 50.61108398 C97.58767203 48.34895271 96.25579336 46.08889308 94.92016602 43.83105469 C93.23340198 40.97081309 91.56665786 38.100426 89.91088867 35.22216797 C89.0190727 33.67913499 88.12715433 32.1361612 87.23510742 30.59326172 C86.83340332 29.89185059 86.43169922 29.19043945 86.01782227 28.46777344 C84.13220125 24.97254111 84.13220125 24.97254111 81.04760742 22.65576172 Z M-37.95239258 91.65576172 C-33.48134332 100.75085954 -33.48134332 100.75085954 -28.58520508 109.62060547 C-28.01374756 110.59900391 -27.44229004 111.57740234 -26.85351562 112.58544922 C-26.26739502 113.57802734 -25.68127441 114.57060547 -25.07739258 115.59326172 C-24.460979 116.63869141 -23.84456543 117.68412109 -23.20947266 118.76123047 C-21.9978219 120.81291868 -20.78443636 122.86358364 -19.5690918 124.91308594 C-18.21913858 127.2032361 -16.89280332 129.50366708 -15.58129883 131.81591797 C-10.28839112 140.92142319 -4.20997637 148.30232086 6.04760742 151.65576172 C9.69127696 152.51751528 13.10714173 152.80302722 16.84765625 152.86108398 C18.55886406 152.89100182 18.55886406 152.89100182 20.30464172 152.92152405 C21.52564072 152.93823654 22.74663971 152.95494904 24.00463867 152.97216797 C25.26273849 152.99294907 26.52083832 153.01373016 27.81706238 153.03514099 C31.14933028 153.08936637 34.48160982 153.13964116 37.81396484 153.18798828 C41.21937297 153.23837256 44.62469562 153.29396995 48.0300293 153.34912109 C54.7024871 153.45612871 61.37500916 153.55792696 68.04760742 153.65576172 C63.57655817 144.5606639 63.57655817 144.5606639 58.68041992 135.69091797 C58.10855957 134.71227783 57.53669922 133.7336377 56.94750977 132.7253418 C56.36179199 131.73300537 55.77607422 130.74066895 55.17260742 129.71826172 C54.55981934 128.67500732 53.94703125 127.63175293 53.31567383 126.55688477 C44.54544527 109.7416037 44.54544527 109.7416037 31.67260742 96.46826172 C30.94299805 95.97970703 30.21338867 95.49115234 29.46166992 94.98779297 C24.69017793 92.35497943 20.37297609 91.40543825 14.95043945 91.42871094 C13.76966827 91.428862 12.58889709 91.42901306 11.37234497 91.4291687 C9.48296707 91.44465256 9.48296707 91.44465256 7.55541992 91.46044922 C6.25434296 91.46327911 4.95326599 91.46610901 3.61276245 91.46902466 C0.17024922 91.47662497 -3.27209261 91.49624199 -6.71453857 91.51843262 C-10.23390383 91.53896911 -13.75329705 91.54804299 -17.27270508 91.55810547 C-24.16600421 91.5794917 -31.05919014 91.61358362 -37.95239258 91.65576172 Z M6.04760742 167.65576172 C9.77018456 175.22702589 13.48968058 182.74424692 17.86010742 189.96826172 C18.71597615 191.39901211 19.57143203 192.83000954 20.42651367 194.26123047 C20.85722168 194.97972168 21.28792969 195.69821289 21.73168945 196.43847656 C23.07594814 198.70351504 24.39136202 200.98323242 25.69995117 203.26904297 C26.13525146 204.02467529 26.57055176 204.78030762 27.01904297 205.55883789 C27.84229673 206.9895105 28.66057537 208.42306341 29.47265625 209.86010742 C32.94855575 215.86179289 36.957966 221.87791063 43.04760742 225.46826172 C43.66635742 225.84595703 44.28510742 226.22365234 44.92260742 226.61279297 C49.63987062 228.92806737 53.90420071 229.90713416 59.14477539 229.97460938 C60.91593216 230.00441391 60.91593216 230.00441391 62.72286987 230.03482056 C63.98245514 230.04637177 65.24204041 230.05792297 66.53979492 230.06982422 C67.84087189 230.08919037 69.14194885 230.10855652 70.48245239 230.12850952 C73.92481507 230.17964111 77.36721665 230.2193676 80.80975342 230.25665283 C84.32923863 230.29681219 87.84856465 230.34784982 91.36791992 230.39794922 C98.26103251 230.49448339 105.1542475 230.57895948 112.04760742 230.65576172 C110.50416717 225.78358405 108.4451648 221.63238521 105.79760742 217.28076172 C104.89939559 215.78531397 104.00232981 214.28917748 103.10620117 212.79248047 C102.61877441 211.97956543 102.13134766 211.16665039 101.62915039 210.32910156 C99.8956092 207.39883357 98.20525481 204.44623362 96.52026367 201.48779297 C95.91408203 200.42931152 95.30790039 199.37083008 94.68334961 198.28027344 C93.49383477 196.20101169 92.31058604 194.11814893 91.13452148 192.03125 C86.54052856 184.0454429 81.8552458 176.50748556 73.42260742 172.21826172 C72.5228418 171.74517578 71.62307617 171.27208984 70.69604492 170.78466797 C66.24581179 168.88773969 62.05365017 168.52503511 57.24755859 168.45043945 C56.10675339 168.43049423 54.96594818 168.41054901 53.79057312 168.38999939 C52.56957413 168.3732869 51.34857513 168.3565744 50.09057617 168.33935547 C48.83247635 168.31857437 47.57437653 168.29779327 46.27815247 168.27638245 C42.94588456 168.22215707 39.61360503 168.17188227 36.28125 168.12353516 C32.87584187 168.07315088 29.47051922 168.01755349 26.06518555 167.96240234 C19.39272775 167.85539473 12.72020568 167.75359648 6.04760742 167.65576172 Z M170.04760742 175.65576172 C169.62092773 176.54392578 169.19424805 177.43208984 168.75463867 178.34716797 C163.14828811 189.85639572 156.85694348 200.93813095 150.52172852 212.05810547 C148.58471827 215.47145243 146.678862 218.89882035 144.79760742 222.34326172 C144.27682617 223.29587891 143.75604492 224.24849609 143.21948242 225.22998047 C141.18340499 229.44466075 140.84204014 233.10949021 140.73510742 237.78076172 C140.69772461 238.83521484 140.6603418 239.88966797 140.62182617 240.97607422 C141.75047911 250.73012069 147.42486752 259.31933055 152.17260742 267.71826172 C152.84170709 268.90929142 153.51056893 270.10045477 154.17919922 271.29174805 C156.12520832 274.75221338 158.08554507 278.20437382 160.04760742 281.65576172 C160.58949707 282.61385742 161.13138672 283.57195312 161.68969727 284.55908203 C163.06989639 286.99303005 164.46133885 289.41994953 165.86010742 291.84326172 C166.26181152 292.549104 166.66351563 293.25494629 167.07739258 293.98217773 C168.00999049 295.57511052 169.02022104 297.12225236 170.04760742 298.65576172 C170.70760742 298.65576172 171.36760742 298.65576172 172.04760742 298.65576172 C172.47468994 297.90705811 172.90177246 297.15835449 173.34179688 296.38696289 C174.98036695 293.51512199 176.61951962 290.64361497 178.25897217 287.77227783 C178.9916813 286.48868645 179.72414482 285.20495484 180.45635986 283.92108154 C184.10547531 277.522824 187.75744923 271.12753049 191.48901367 264.77685547 C191.99070068 263.9213208 192.4923877 263.06578613 193.00927734 262.18432617 C193.92521591 260.62664519 194.84567776 259.0716116 195.77148438 257.51977539 C200.83535907 248.89809649 203.26178204 240.32699215 200.93823242 230.43701172 C196.61387917 216.93289105 187.834587 204.56806499 180.68774414 192.44873047 C178.48686833 188.70088598 176.3220712 184.93327226 174.17260742 181.15576172 C173.24834961 179.53154297 173.24834961 179.53154297 172.30541992 177.87451172 C171.8903418 177.14232422 171.47526367 176.41013672 171.04760742 175.65576172 C170.71760742 175.65576172 170.38760742 175.65576172 170.04760742 175.65576172 Z " fill="#000000" transform="translate(173.952392578125,95.34423828125)"/>
<path d="M0 0 C1.00318148 -0.00453111 2.00636296 -0.00906223 3.03994387 -0.01373065 C6.40539398 -0.02640276 9.77068283 -0.02475244 13.13615417 -0.02310181 C15.54752816 -0.0290853 17.95890023 -0.03589043 20.37026978 -0.04345703 C26.2430937 -0.05930503 32.11587975 -0.06556623 37.98872069 -0.06668179 C42.76351987 -0.06763267 47.53830582 -0.07174498 52.31310081 -0.07808304 C65.85607347 -0.09569358 79.39901445 -0.10492225 92.94199864 -0.10342209 C93.67187075 -0.10334218 94.40174285 -0.10326227 95.1537323 -0.10317993 C96.24988016 -0.10305729 96.24988016 -0.10305729 97.36817243 -0.10293217 C109.20918118 -0.1021194 121.05006269 -0.12125515 132.89103464 -0.14945666 C145.05469411 -0.17819768 157.21829156 -0.19199628 169.38198584 -0.19026911 C176.20879121 -0.18960561 183.03546319 -0.19508024 189.86223793 -0.21662521 C196.28332244 -0.23676024 202.70419811 -0.23615083 209.12529945 -0.22159195 C211.48111889 -0.2194993 213.83695582 -0.22423178 216.19274521 -0.23631287 C219.41081082 -0.25174613 222.62790266 -0.24246897 225.84594727 -0.22705078 C226.77640722 -0.23733791 227.70686717 -0.24762503 228.66552287 -0.25822389 C235.56506262 -0.18526223 240.59588543 1.56268534 246.0743866 5.77523804 C251.16221238 11.59391172 254.60935907 18.2861352 258.2618866 25.04867554 C261.31940095 30.6939804 264.55109086 36.23121668 267.8009491 41.76742554 C273.49725328 51.48906588 279.15726809 61.23058894 284.75505066 71.0093689 C287.52774605 75.84252446 290.32112627 80.64793871 293.28141785 85.36898804 C293.99056335 86.51476318 293.99056335 86.51476318 294.71403503 87.6836853 C295.56617401 89.0516827 296.43383651 90.41021629 297.32145691 91.75546265 C300.16942792 96.35607846 301.28826393 100.87512419 300.1134491 106.26742554 C298.43086727 108.35961033 297.63287246 109.15263584 294.99235535 109.73617554 C293.84573425 109.75164429 293.84573425 109.75164429 292.6759491 109.76742554 C291.91411316 109.79836304 291.15227722 109.82930054 290.36735535 109.86117554 C286.32913496 108.79738091 284.53767626 104.95365185 282.42863464 101.54208374 C281.8747406 100.56070435 281.32084656 99.57932495 280.75016785 98.56820679 C280.11844666 97.45494019 279.48672546 96.34167358 278.83586121 95.19467163 C278.50472321 94.60643616 278.17358521 94.01820068 277.83241272 93.41213989 C276.41849474 90.90056239 274.99492259 88.39450038 273.57208252 85.88796997 C272.83617366 84.59126018 272.10077534 83.29426053 271.36587524 81.99697876 C267.79387147 75.69306447 264.17731962 69.41520946 260.5509491 63.14242554 C259.32433185 61.02006134 258.09776956 58.89766539 256.8712616 56.77523804 C256.26056824 55.71852905 255.64987488 54.66182007 255.02067566 53.5730896 C253.35164382 50.680272 251.68639186 47.78535023 250.02365112 44.88891602 C248.65501896 42.50492717 247.28491101 40.12178789 245.91474915 37.73867798 C244.95345655 36.0653091 243.99423744 34.39074962 243.03507996 32.71615601 C238.7614839 23.88036849 238.7614839 23.88036849 232.1134491 17.26742554 C229.02552724 17.16028881 225.95971296 17.11520222 222.8711853 17.11352539 C221.90111882 17.10914314 220.93105234 17.10476088 219.9315899 17.10024583 C216.66042062 17.08682352 213.3892783 17.08067131 210.11808777 17.07455444 C207.78110633 17.06665627 205.44412613 17.0583875 203.10714722 17.04977417 C195.41524933 17.02352415 187.72334591 17.00824492 180.03141785 16.99398804 C177.38730172 16.98862984 174.74318564 16.98325234 172.0990696 16.97785568 C161.10412109 16.95602463 150.10917218 16.93733385 139.11420727 16.92623329 C136.2603575 16.92330352 133.40650776 16.92034187 130.55265808 16.91732788 C129.84333432 16.91658183 129.13401056 16.91583578 128.40319214 16.91506712 C116.90913746 16.90240987 105.41523735 16.86918223 93.92125496 16.82752605 C82.12496699 16.78512411 70.32875821 16.76154034 58.53239423 16.75631273 C51.90736804 16.75289674 45.28255626 16.74055421 38.6575985 16.70820999 C32.42692535 16.67822703 26.1966741 16.67178279 19.96594429 16.68359375 C17.67658291 16.68381529 15.3872025 16.67544394 13.09790802 16.65793991 C9.97698 16.63537224 6.85759788 16.64348631 3.73666382 16.65942383 C2.37148795 16.6386007 2.37148795 16.6386007 0.97873276 16.6173569 C-3.47571551 16.67356823 -5.29182552 16.79496341 -8.88608837 19.65032005 C-10.80736919 22.16383605 -12.43684686 24.60109627 -13.94514465 27.38070679 C-14.48840393 28.36869263 -15.03166321 29.35667847 -15.59138489 30.37460327 C-16.44905457 31.96123779 -16.44905457 31.96123779 -17.3240509 33.57992554 C-18.57220892 35.84916883 -19.82225699 38.11737341 -21.0740509 40.38461304 C-22.02537903 42.11082886 -22.02537903 42.11082886 -22.9959259 43.87191772 C-25.86570112 49.025951 -28.83745287 54.11795153 -31.8240509 59.20492554 C-32.99088824 61.19571093 -34.15755335 63.18659728 -35.3240509 65.17758179 C-35.90799622 66.17418823 -36.49194153 67.17079468 -37.09358215 68.19760132 C-40.19092129 73.50069803 -43.25768948 78.82137489 -46.3240509 84.14242554 C-46.94658752 85.22257935 -47.56912415 86.30273315 -48.21052551 87.4156189 C-49.47231917 89.60538888 -50.73395624 91.79524909 -51.99543762 93.98519897 C-55.12335239 99.41402496 -58.25513538 104.84061835 -61.3865509 110.26742554 C-62.63656969 112.43408136 -63.88656969 114.60074803 -65.1365509 116.76742554 C-87.63655091 155.76742554 -87.63655091 155.76742554 -89.51228333 159.01864624 C-90.7598983 161.18121137 -92.00745707 163.34380893 -93.25495911 165.50643921 C-97.05711851 172.09754385 -100.86116981 178.68755038 -104.66755676 185.2762146 C-105.92668247 187.4581187 -107.18404186 189.64104317 -108.43952942 191.82504272 C-111.42719103 197.02159724 -114.43445743 202.20379736 -117.4959259 207.35726929 C-118.05835999 208.31399536 -118.62079407 209.27072144 -119.20027161 210.25643921 C-120.2508305 212.04275263 -121.31124879 213.82331964 -122.38337708 215.59677124 C-122.84719788 216.39043091 -123.31101868 217.18409058 -123.78889465 218.00180054 C-124.19615784 218.6846814 -124.60342102 219.36756226 -125.02302551 220.07113647 C-126.53670311 223.92102159 -126.38292851 227.05555279 -124.82356262 230.86264038 C-124.32614563 231.72582886 -123.82872864 232.58901733 -123.3162384 233.47836304 C-122.75686584 234.46312622 -122.19749329 235.4478894 -121.62117004 236.4624939 C-121.00749573 237.51187134 -120.39382141 238.56124878 -119.7615509 239.64242554 C-118.81300232 241.29866943 -118.81300232 241.29866943 -117.84529114 242.9883728 C-115.87291403 246.42310955 -113.88217034 249.84615179 -111.8865509 253.26742554 C-110.71325945 255.2894946 -109.54007766 257.31162729 -108.36701965 259.33383179 C-106.06890206 263.28639721 -103.76165485 267.23347667 -101.4490509 271.17758179 C-97.7544178 277.48312973 -94.09802409 283.8103699 -90.4490509 290.14242554 C-89.51524597 291.76265625 -89.51524597 291.76265625 -88.56257629 293.4156189 C-87.30078264 295.60538888 -86.03914557 297.79524909 -84.77766418 299.98519897 C-81.64974942 305.41402496 -78.51796642 310.84061835 -75.3865509 316.26742554 C-74.13653211 318.43408136 -72.88653212 320.60074803 -71.6365509 322.76742554 C-71.0178009 323.83992554 -70.3990509 324.91242554 -69.7615509 326.01742554 C-49.1365509 361.76742554 -49.1365509 361.76742554 -47.26130676 365.01791382 C-46.01219572 367.18299624 -44.76300961 369.34803536 -43.51374817 371.51303101 C-40.37452781 376.9535826 -37.23664528 382.39489769 -34.10139465 387.83773804 C-30.99497093 393.23032301 -27.88169741 398.61891928 -24.766922 404.00668335 C-22.81646809 407.3889558 -20.87665234 410.77719649 -18.93733215 414.16586304 C-17.67064847 416.36652399 -16.40373006 418.56704985 -15.1365509 420.76742554 C-14.25954529 422.30874146 -14.25954529 422.30874146 -13.36482239 423.88119507 C-12.54799988 425.2944104 -12.54799988 425.2944104 -11.7146759 426.73617554 C-11.23933411 427.56568726 -10.76399231 428.39519897 -10.27424622 429.24984741 C-8.88558667 431.53615723 -8.88558667 431.53615723 -5.8865509 433.26742554 C-3.9519875 433.56904389 -3.9519875 433.56904389 -1.81443977 433.52748775 C-0.98250198 433.53455335 -0.15056418 433.54161894 0.70658386 433.54889864 C1.62048043 433.54648355 2.534377 433.54406847 3.47596741 433.5415802 C4.44688831 433.54681688 5.41780922 433.55205356 6.41815197 433.55744892 C9.6862544 433.57250488 12.95420103 433.5731553 16.22233582 433.57382202 C18.55946621 433.58143971 20.89659409 433.58986653 23.23371887 433.5990448 C29.59318306 433.62103443 35.95259916 433.62979464 42.31209707 433.63487124 C46.28230584 433.63850936 50.2525019 433.64474655 54.22270584 433.65187263 C65.21340872 433.67133292 76.20410106 433.68784319 87.19482231 433.69074917 C87.89825062 433.69093674 88.60167892 433.69112431 89.32642324 433.69131756 C90.7524631 433.69168381 92.17850297 433.69204751 93.60454284 433.69240867 C94.66638552 433.69268289 94.66638552 433.69268289 95.74967957 433.69296265 C96.45843782 433.6931432 97.16719608 433.69332374 97.89743187 433.69350976 C109.38496494 433.69705233 120.87231066 433.72407953 132.35977875 433.76146054 C144.15158733 433.79952511 155.9433029 433.8189065 167.7351743 433.81920868 C174.3568208 433.81979364 180.97827012 433.82882223 187.59986496 433.85720634 C193.82646373 433.88329948 200.052619 433.88564092 206.27924728 433.8695507 C208.5669908 433.86772928 210.8547593 433.874489 213.14244843 433.89036942 C216.26115086 433.91070179 219.37828276 433.900353 222.4969635 433.88215637 C223.86111619 433.90195632 223.86111619 433.90195632 225.25282753 433.92215627 C229.70507725 433.8626515 231.52046616 433.73865264 235.11256599 430.88411045 C237.0343883 428.37081848 238.66367682 425.93388056 240.17204285 423.15414429 C240.71530212 422.16615845 241.2585614 421.17817261 241.81828308 420.1602478 C242.39006287 419.10249146 242.96184265 418.04473511 243.5509491 416.95492554 C244.79910711 414.68568225 246.04915518 412.41747767 247.3009491 410.15023804 C248.25227722 408.42402222 248.25227722 408.42402222 249.2228241 406.66293335 C252.09259931 401.50890007 255.06435107 396.41689954 258.0509491 391.32992554 C259.21778643 389.33914014 260.38445154 387.34825379 261.5509491 385.35726929 C262.13489441 384.36066284 262.71883972 383.3640564 263.32048035 382.33724976 C266.41781948 377.03415304 269.48458767 371.71347618 272.5509491 366.39242554 C273.17348572 365.31227173 273.79602234 364.23211792 274.43742371 363.11923218 C275.69921736 360.9294622 276.96085443 358.73960199 278.22233582 356.5496521 C281.35025058 351.12082611 284.48203358 345.69423273 287.6134491 340.26742554 C288.86346789 338.10076971 290.11346788 335.93410304 291.3634491 333.76742554 C313.86344909 294.76742554 313.86344909 294.76742554 315.73918152 291.51620483 C316.9867965 289.3536397 318.23435526 287.19104215 319.4818573 285.02841187 C323.28401671 278.43730723 327.088068 271.84730069 330.89445496 265.25863647 C332.15358067 263.07673237 333.41094006 260.8938079 334.66642761 258.70980835 C337.65408923 253.51325383 340.66135563 248.33105371 343.7228241 243.17758179 C344.28525818 242.22085571 344.84769226 241.26412964 345.4271698 240.27841187 C346.4777287 238.49209845 347.53814698 236.71153143 348.61027527 234.93807983 C349.07409607 234.14442017 349.53791687 233.3507605 350.01579285 232.53305054 C350.42305603 231.85016968 350.83031921 231.16728882 351.24992371 230.4637146 C352.7636013 226.61382948 352.6098267 223.47929828 351.05046082 219.67221069 C350.55304382 218.80902222 350.05562683 217.94583374 349.5431366 217.05648804 C348.70407776 215.57934326 348.70407776 215.57934326 347.84806824 214.07235718 C347.23439392 213.02297974 346.6207196 211.97360229 345.9884491 210.89242554 C345.35608337 209.78826294 344.72371765 208.68410034 344.07218933 207.54647827 C342.09981222 204.11174153 340.10906853 200.68869928 338.1134491 197.26742554 C336.94015764 195.24535648 335.76697585 193.22322378 334.59391785 191.20101929 C332.30338813 187.26160874 330.00408038 183.32747078 327.6993866 179.39633179 C322.00823785 169.68299749 316.39064379 159.92750935 310.78630066 150.16390991 C309.26328323 147.52685814 307.72051323 144.90288725 306.1681366 142.28305054 C305.33732931 140.86122118 304.50659342 139.4393501 303.6759491 138.01742554 C303.30429626 137.40447632 302.93264343 136.7915271 302.54972839 136.16000366 C300.36097867 132.3744066 299.65093495 129.6238088 300.1134491 125.26742554 C301.1759491 122.95492554 301.1759491 122.95492554 303.1134491 121.26742554 C306.85653031 120.22768075 309.07012023 119.78291123 312.64006042 121.44076538 C315.47967364 123.53789164 316.64632821 125.33342074 318.31266785 128.43148804 C318.87655212 129.46201294 319.4404364 130.49253784 320.02140808 131.55429077 C320.60865662 132.65587524 321.19590515 133.75745972 321.8009491 134.89242554 C323.05475615 137.18876411 324.30996727 139.48433661 325.5665741 141.77914429 C326.17565613 142.89853394 326.78473816 144.01792358 327.41227722 145.17123413 C329.55017662 149.06228467 331.77662456 152.89249911 334.0509491 156.70492554 C338.86510734 164.81145039 343.57191903 172.97819278 348.27384949 181.15023804 C351.5468922 186.83396987 354.83405391 192.50856024 358.1525116 198.16586304 C358.79672058 199.26470825 359.44092957 200.36355347 360.10466003 201.49569702 C361.33727533 203.59558402 362.57221043 205.69411147 363.80973816 207.79110718 C364.36113464 208.73075317 364.91253113 209.67039917 365.4806366 210.63851929 C365.96645203 211.46279419 366.45226746 212.28706909 366.95280457 213.13632202 C369.06224764 217.00955059 369.39068308 220.34860379 369.5509491 224.70492554 C369.61153503 225.83801147 369.67212097 226.97109741 369.73454285 228.13851929 C369.06058527 237.71286051 361.45667729 247.32886181 356.6759491 255.39242554 C355.43576673 257.5014484 354.19620472 259.61083615 352.9571991 261.72055054 C352.00587097 263.33800171 352.00587097 263.33800171 351.0353241 264.98812866 C347.88860802 270.35737286 344.7818629 275.74950745 341.6759491 281.14242554 C340.74311096 282.76108521 340.74311096 282.76108521 339.79142761 284.41244507 C338.52895179 286.60325505 337.26666354 288.79417313 336.00456238 290.98519897 C332.87664761 296.41402496 329.74486462 301.84061835 326.6134491 307.26742554 C325.36343031 309.43408136 324.11343031 311.60074803 322.8634491 313.76742554 C320.3634491 318.10075887 317.8634491 322.4340922 315.3634491 326.76742554 C314.74461853 327.84008667 314.12578796 328.9127478 313.48820496 330.01791382 C312.23909392 332.18299624 310.9899078 334.34803536 309.74064636 336.51303101 C306.601426 341.9535826 303.46354347 347.39489769 300.32829285 352.83773804 C294.30597606 363.2894871 288.26681672 373.73045693 282.1759491 384.14242554 C277.36820078 392.36168249 272.61758461 400.61164402 267.90223694 408.88409424 C266.87345893 410.68737988 265.84260052 412.48945848 264.81095886 414.29110718 C261.90274436 419.37133577 259.00269557 424.45465841 256.1603241 429.57211304 C246.36305209 447.03483481 246.36305209 447.03483481 236.1134491 450.26742554 C232.81836071 450.56615674 229.53368557 450.54577971 226.22689819 450.53485107 C225.22371671 450.53938219 224.22053524 450.5439133 223.18695432 450.54858172 C219.82150422 450.56125384 216.45621536 450.55960352 213.09074402 450.55795288 C210.67937003 450.56393637 208.26799796 450.5707415 205.85662842 450.57830811 C199.98380449 450.59415611 194.11101844 450.6004173 188.2381775 450.60153286 C183.46337832 450.60248375 178.68859237 450.60659606 173.91379738 450.61293411 C160.37082472 450.63054466 146.82788374 450.63977332 133.28489956 450.63827316 C132.55502745 450.63819325 131.82515534 450.63811334 131.07316589 450.63803101 C130.34240065 450.63794924 129.61163541 450.63786748 128.85872576 450.63778324 C117.01771701 450.63697048 105.1768355 450.65610623 93.33586355 450.68430774 C81.17220408 450.71304875 69.00860664 450.72684735 56.84491235 450.72512019 C50.01810699 450.72445669 43.19143501 450.72993131 36.36466026 450.75147629 C29.94357575 450.77161132 23.52270008 450.7710019 17.10159874 450.75644302 C14.74577931 450.75435037 12.38994237 450.75908285 10.03415298 450.77116394 C6.81608737 450.78659721 3.59899554 450.77732004 0.38095093 450.76190186 C-0.54950902 450.77218898 -1.47996897 450.78247611 -2.43862468 450.79307497 C-9.39202296 450.71954376 -14.59416347 449.01346276 -19.96833801 444.53109741 C-24.60042197 439.01789015 -28.04617161 433.09849012 -31.4490509 426.76742554 C-32.67894597 424.52551007 -33.91076638 422.28464991 -35.1443634 420.04476929 C-35.76601379 418.91281128 -36.38766418 417.78085327 -37.02815247 416.61459351 C-39.88236276 411.4738653 -42.84651137 406.39992697 -45.8240509 401.32992554 C-46.99091764 399.33915738 -48.15758258 397.34827092 -49.3240509 395.35726929 C-49.90799622 394.36066284 -50.49194153 393.3640564 -51.09358215 392.33724976 C-54.19092129 387.03415304 -57.25768948 381.71347618 -60.3240509 376.39242554 C-60.94658752 375.31227173 -61.56912415 374.23211792 -62.21052551 373.11923218 C-63.47231917 370.9294622 -64.73395624 368.73960199 -65.99543762 366.5496521 C-69.12335239 361.12082611 -72.25513538 355.69423273 -75.3865509 350.26742554 C-76.63656969 348.10076971 -77.88656969 345.93410304 -79.1365509 343.76742554 C-79.7553009 342.69492554 -80.3740509 341.62242554 -81.0115509 340.51742554 C-101.6365509 304.76742554 -101.6365509 304.76742554 -103.51179504 301.51693726 C-104.76090608 299.35185483 -106.0100922 297.18681571 -107.25935364 295.02182007 C-110.398574 289.58126848 -113.53645653 284.13995338 -116.67170715 278.69711304 C-117.93076387 276.51218386 -119.18987812 274.32728783 -120.4490509 272.14242554 C-121.36581604 270.55095703 -121.36581604 270.55095703 -122.30110168 268.92733765 C-125.48396251 263.40844376 -128.68280988 257.89954651 -131.90608215 252.40414429 C-132.55311096 251.30022339 -133.20013977 250.19630249 -133.86677551 249.05892944 C-135.1033292 246.95164184 -136.34231431 244.84577857 -137.58406067 242.74154663 C-138.13505432 241.80262573 -138.68604797 240.86370483 -139.2537384 239.89633179 C-139.73955383 239.07205688 -140.22536926 238.24778198 -140.72590637 237.39852905 C-143.97276409 231.43685024 -143.58132076 224.85742077 -142.8865509 218.26742554 C-141.44688137 213.90858419 -139.25800553 210.18485863 -136.8865509 206.26742554 C-136.18513289 205.0642779 -135.48602681 203.85978031 -134.78889465 202.65414429 C-133.15566753 199.8446152 -131.50288847 197.04758187 -129.8396759 194.25570679 C-126.40616529 188.47784787 -123.05297656 182.65423206 -119.6990509 176.82992554 C-118.74300964 175.1706604 -118.74300964 175.1706604 -117.76765442 173.47787476 C-116.45892674 171.20618888 -115.15041606 168.93437799 -113.84211731 166.66244507 C-110.69323037 161.19572574 -107.53971827 155.73167667 -104.3865509 150.26742554 C-103.1365274 148.10077243 -101.88652744 145.93410574 -100.6365509 143.76742554 C-88.1365509 122.10075887 -75.6365509 100.4340922 -63.1365509 78.76742554 C-62.51772034 77.6947644 -61.89888977 76.62210327 -61.26130676 75.51693726 C-60.01219572 73.35185483 -58.76300961 71.18681571 -57.51374817 69.02182007 C-53.74283954 62.48649583 -49.97453838 55.94967935 -46.20906067 49.41122437 C-44.96032923 47.24579694 -43.70954091 45.08155425 -42.45661926 42.91854858 C-39.30643465 37.47987793 -36.18484679 32.0281876 -33.1131134 26.54476929 C-32.49766663 25.45889526 -31.88221985 24.37302124 -31.24812317 23.25424194 C-30.0880361 21.20736285 -28.93919173 19.15405095 -27.80427551 17.09310913 C-20.91616144 5.0223692 -13.83414946 -0.04572063 0 0 Z " fill="#000000" transform="translate(142.8865509033203,30.732574462890625)"/>
</svg>
