<?xml version="1.0" encoding="UTF-8"?>
<svg version="1.1" xmlns="http://www.w3.org/2000/svg" width="512" height="512">
<path d="M0 0 C1.56041016 -0.09087891 1.56041016 -0.09087891 3.15234375 -0.18359375 C12.8825134 1.36195767 21.81118995 7.90885067 30.1875 12.875 C32.29652286 14.11518236 34.40591061 15.35474438 36.515625 16.59375 C38.13307617 17.54507812 38.13307617 17.54507812 39.78320312 18.515625 C45.15244953 21.66234237 50.54471977 24.76884335 55.9375 27.875 C57.00427979 28.49036621 58.07105957 29.10573242 59.17016602 29.73974609 C64.23681603 32.66157126 69.30605702 35.57874732 74.3817749 38.48478699 C76.15434277 39.50000835 77.92616231 40.51652339 79.69775391 41.53344727 C81.91338136 42.8047736 84.13041074 44.07366121 86.34912109 45.33959961 C104.03541277 55.49743869 104.03541277 55.49743869 107.5625 60.5625 C108.0265625 61.20445313 108.490625 61.84640625 108.96875 62.5078125 C112.24887413 68.29488863 111.36341071 75.43933459 111.4375 81.875 C111.47488281 83.10283203 111.51226562 84.33066406 111.55078125 85.59570312 C111.64951316 95.67184257 111.64951316 95.67184257 108.7265625 98.74609375 C105.42285865 100.84360661 103.90122664 101.23723472 100.0625 100.4375 C97.41015625 98.65234375 97.41015625 98.65234375 95.0625 95.4375 C94.39655654 91.41916238 94.45410573 87.44026631 94.5 83.375 C94.51660589 81.21751143 94.51600877 79.05980431 94.49609375 76.90234375 C94.51240845 75.47329712 94.51240845 75.47329712 94.52905273 74.01538086 C93.91440323 70.61920914 92.72310354 69.58737405 90.0625 67.4375 C88.37738988 66.33199593 86.6515271 65.28715797 84.8984375 64.29296875 C83.87234375 63.70644531 82.84625 63.11992188 81.7890625 62.515625 C80.68304688 61.89171875 79.57703125 61.2678125 78.4375 60.625 C77.2704447 59.96031732 76.10378477 59.29494001 74.9375 58.62890625 C72.5155191 57.24649197 70.09186846 55.86707485 67.66699219 54.48974609 C62.11610255 51.33355836 56.59070287 48.1331955 51.0625 44.9375 C48.91807441 43.70033767 46.77354253 42.46335956 44.62890625 41.2265625 C40.66915788 38.94220699 36.71020173 36.65649094 32.75228882 34.36895752 C30.97887392 33.34404597 29.20528354 32.31943877 27.43164062 31.29492188 C25.21254227 30.01297262 22.99376984 28.73045893 20.77539062 27.44726562 C18.78589997 26.29826177 16.79306268 25.15502643 14.79638672 24.01855469 C13.0341454 22.99941959 11.28898011 21.94986919 9.56689453 20.86425781 C8.8036084 20.39600586 8.04032227 19.92775391 7.25390625 19.4453125 C6.60752197 19.03168457 5.9611377 18.61805664 5.29516602 18.19189453 C0.97229927 16.731243 -2.85559676 17.94490435 -6.88989258 19.78173828 C-7.86079834 20.35134277 -8.8317041 20.92094727 -9.83203125 21.5078125 C-10.93885254 22.14920166 -12.04567383 22.79059082 -13.18603516 23.45141602 C-14.3741167 24.15495321 -15.56210247 24.85865215 -16.75 25.5625 C-17.99723359 26.29009738 -19.2451295 27.0165605 -20.49365234 27.74194336 C-23.06074955 29.23533122 -25.62428077 30.73457231 -28.18505859 32.23876953 C-32.73282186 34.90780765 -37.3031746 37.53717933 -41.87426758 40.16601562 C-45.06440395 42.00109522 -48.25133603 43.84162697 -51.4375 45.68359375 C-55.37740086 47.96044804 -59.31936203 50.23363517 -63.26443481 52.50151062 C-65.04747818 53.52652072 -66.83017977 54.55212285 -68.61279297 55.57788086 C-70.84553902 56.8623814 -73.07889769 58.14581792 -75.31298828 59.42797852 C-85.3492823 64.21319386 -85.3492823 64.21319386 -92.9375 71.4375 C-93.07908059 72.83630525 -93.16399288 74.24106942 -93.21925354 75.64593506 C-93.25531204 76.52876663 -93.29137054 77.41159821 -93.32852173 78.32118225 C-93.36263153 79.29252609 -93.39674133 80.26386993 -93.43188477 81.26464844 C-93.47058182 82.28608444 -93.50927887 83.30752045 -93.54914856 84.35990906 C-93.88928888 93.8141189 -94.09765908 103.27085795 -94.26312351 112.72959518 C-94.37694985 119.08259131 -94.53583176 125.42732933 -94.80297852 131.77587891 C-97.57724726 158.02688989 -97.57724726 158.02688989 -90.50115967 182.14916992 C-84.71168172 188.08868477 -76.93268675 190.88034303 -68.9375 192.4375 C-65.76445465 189.31896653 -63.03055534 186.37319088 -60.625 182.625 C-60.11324219 181.83480469 -59.60148438 181.04460937 -59.07421875 180.23046875 C-58.69910156 179.63878906 -58.32398438 179.04710937 -57.9375 178.4375 C-59.04158203 177.78394531 -59.04158203 177.78394531 -60.16796875 177.1171875 C-72.56657684 169.55026949 -72.56657684 169.55026949 -74.9375 162.4375 C-75.04851492 159.99583943 -75.10509659 157.58192592 -75.11450195 155.13964844 C-75.12107315 154.39942947 -75.12764435 153.65921051 -75.13441467 152.89656067 C-75.15412577 150.44666438 -75.16580605 147.99682936 -75.17578125 145.546875 C-75.17985678 144.70885597 -75.1839323 143.87083694 -75.18813133 143.0074234 C-75.20898386 138.57086942 -75.22328847 134.13434628 -75.23266602 129.69775391 C-75.24372205 125.12349708 -75.27811473 120.54972782 -75.31783772 115.97564316 C-75.34402903 112.45136635 -75.35236012 108.92720522 -75.35594749 105.40283966 C-75.36080784 103.71719321 -75.37240612 102.03155173 -75.39098549 100.34600067 C-75.41542891 97.98125491 -75.4144029 95.61776405 -75.4074707 93.25292969 C-75.42668579 92.21773949 -75.42668579 92.21773949 -75.44628906 91.16163635 C-75.38911755 85.7837413 -73.85665028 82.7928666 -70.9375 78.4375 C-68.99780273 76.68530273 -68.99780273 76.68530273 -66.93359375 75.43359375 C-66.1432373 74.94616699 -65.35288086 74.45874023 -64.53857422 73.95654297 C-63.68021973 73.45525879 -62.82186523 72.95397461 -61.9375 72.4375 C-61.0314502 71.89883301 -60.12540039 71.36016602 -59.19189453 70.80517578 C-56.14106862 69.01301415 -53.07327832 67.25336261 -50 65.5 C-48.29119896 64.52023486 -46.58240156 63.54046332 -44.87380981 62.56033325 C-43.69556255 61.88468282 -42.51707342 61.20945403 -41.33834839 60.53463745 C-37.10771689 58.11221609 -32.88579207 55.67511397 -28.66796875 53.23046875 C-27.48625917 52.54612111 -26.30453733 51.86179466 -25.12280273 51.17749023 C-22.87822355 49.8772582 -20.63422022 48.57603143 -18.39086914 47.27368164 C-17.36985107 46.68321045 -16.34883301 46.09273926 -15.296875 45.484375 C-14.40452148 44.96713867 -13.51216797 44.44990234 -12.59277344 43.91699219 C-6.32789138 40.42626166 -2.10058568 38.34848476 5.0625 39.4375 C12.36920113 42.40216214 19.16845504 46.741432 25.9375 50.75 C32.79566425 54.79119465 39.66738827 58.79717149 46.60546875 62.69921875 C47.87062666 63.412967 49.1357635 64.12675259 50.40087891 64.84057617 C52.24402629 65.88014729 54.0883768 66.91713028 55.93768311 67.94570923 C73.55438323 77.74683166 73.55438323 77.74683166 76.0625 85.4375 C76.25337582 87.98848796 76.34627662 90.4290622 76.3371582 92.97827148 C76.3448246 94.09144745 76.3448246 94.09144745 76.35264587 95.22711182 C76.36650276 97.67102203 76.36558812 100.11464901 76.36328125 102.55859375 C76.36717024 104.26343388 76.37150532 105.96827304 76.37626648 107.67311096 C76.38372022 111.24312483 76.38344349 114.81303979 76.37817383 118.38305664 C76.3723793 122.95056614 76.38931375 127.51767011 76.4125185 132.08511257 C76.42727316 135.60507054 76.42812521 139.12493121 76.42500877 142.64491463 C76.42552108 144.32857123 76.43074182 146.0122334 76.44082069 147.69585991 C76.45320208 150.05328362 76.44638385 152.40992219 76.43481445 154.76733398 C76.44245819 155.45791397 76.45010193 156.14849396 76.45797729 156.86000061 C76.39395031 162.78330144 74.78713601 166.73190571 70.5859375 170.88671875 C65.93847669 174.47793846 60.76073618 177.31406913 55.6875 180.25 C54.66527344 180.84748047 53.64304687 181.44496094 52.58984375 182.06054688 C50.08356519 183.52449463 47.57444327 184.98330092 45.0625 186.4375 C46.18709671 188.20858948 47.31219203 189.97936236 48.4375 191.75 C49.06398438 192.73613281 49.69046875 193.72226563 50.3359375 194.73828125 C51.55901613 196.65037929 52.8034356 198.5489034 54.0625 200.4375 C57.79054349 199.03350315 61.19612434 197.34081712 64.66796875 195.390625 C65.73466797 194.7925 66.80136719 194.194375 67.90039062 193.578125 C69.00576172 192.95421875 70.11113281 192.3303125 71.25 191.6875 C72.33603516 191.0790625 73.42207031 190.470625 74.54101562 189.84375 C77.72313312 188.05488395 80.90106082 186.26272725 84.0625 184.4375 C85.34034111 183.87839684 85.34034111 183.87839684 86.64399719 183.30799866 C89.52163227 181.91433526 91.73672364 180.63903766 94.0625 178.4375 C95.4434127 174.35381401 95.25311532 170.487887 95.08203125 166.21484375 C95.07821945 165.03660538 95.07440765 163.858367 95.07048035 162.64442444 C95.05238164 158.88572864 94.96810219 155.1325275 94.875 151.375 C94.80840602 147.61472425 94.75633156 143.85566378 94.733078 140.09486389 C94.71601123 137.75729653 94.67262732 135.41973947 94.60005188 133.08323669 C94.50626147 125.20383302 94.50626147 125.20383302 97.3972168 121.22094727 C100.0625 119.4375 100.0625 119.4375 103.0625 118.8125 C107.30288744 119.69591405 108.52291196 120.90704393 111.0625 124.4375 C111.54172304 128.39075604 111.16520415 132.25151781 110.85546875 136.2109375 C110.73805772 138.58020719 110.63022038 140.94996695 110.53100586 143.32006836 C110.47943329 144.54756805 110.42786072 145.77506775 110.37472534 147.0397644 C108.93659964 165.33043238 108.93659964 165.33043238 114.22070312 182.20361328 C119.96505866 187.63436354 126.95622785 189.925877 134.40966797 192.19091797 C140.45301138 194.25329676 145.64364987 197.61184443 151.0625 200.9375 C153.21104076 202.18625378 155.36341183 203.42844021 157.51953125 204.6640625 C158.59025879 205.2818457 159.66098633 205.89962891 160.76416016 206.53613281 C164.15788769 208.49248737 167.5533713 210.4457653 170.94921875 212.3984375 C176.38733299 215.52585686 181.81825768 218.66546297 187.24560547 221.81152344 C189.76244792 223.26430301 192.28758576 224.70103377 194.81640625 226.1328125 C203.00349416 230.81910853 209.87845473 235.02431778 213.0625 244.4375 C213.31976891 246.8107729 213.31976891 246.8107729 213.32992554 249.31282043 C213.34272049 250.74460884 213.34272049 250.74460884 213.35577393 252.20532227 C213.35486755 253.24076172 213.35396118 254.27620117 213.35302734 255.34301758 C213.35974457 256.44280441 213.36646179 257.54259125 213.37338257 258.67570496 C213.39237924 262.31119303 213.3962877 265.94649663 213.3984375 269.58203125 C213.40486446 272.11162899 213.41159274 274.64122597 213.41860962 277.17082214 C213.43058672 282.47433495 213.43437572 287.77777912 213.43310547 293.08129883 C213.43190496 299.19744844 213.45299215 305.31324466 213.4845928 311.4293049 C213.51397481 317.32768834 213.52107944 323.22596465 213.51988602 329.12442589 C213.52224349 331.62701548 213.53107515 334.1296078 213.54655075 336.63215065 C213.56619053 340.13632981 213.5603795 343.63960447 213.54833984 347.14379883 C213.55957886 348.17316559 213.57081787 349.20253235 213.58239746 350.26309204 C213.52148065 357.2558378 212.364028 362.82711372 207.53854942 368.1040163 C202.53414034 372.86474725 196.20974113 375.92357886 190.1875 379.1875 C187.92761846 380.43220229 185.66850432 381.67829885 183.41015625 382.92578125 C182.31590332 383.5285791 181.22165039 384.13137695 180.09423828 384.75244141 C175.57233956 387.26574024 171.10481484 389.86481431 166.6862793 392.55566406 C162.38541542 395.15394039 158.01260661 397.49394344 153.5234375 399.75390625 C137.25139604 407.92288681 137.25139604 407.92288681 128.0715332 422.87597656 C127.60241221 424.36475194 127.14998597 425.85891501 126.71630859 427.35839844 C122.69258896 440.15376678 112.83382868 452.41101486 104.0625 462.4375 C100.84383011 464.04683494 97.5435198 464.03483476 94.0625 463.4375 C91.5 461.375 91.5 461.375 90.0625 458.4375 C90.28712934 452.67201366 91.88545659 449.79547738 95.5625 445.4375 C117.19675983 418.72704513 127.94474237 383.6572572 124.59375 349.3984375 C120.57293776 313.12098902 104.39985442 286.06910336 80.04711914 259.81347656 C76.30545232 255.75983716 72.80701497 251.54794794 69.3515625 247.25 C67.36897985 244.81406228 65.33827995 242.43058745 63.28149414 240.05737305 C38.08899016 210.86518723 17.541704 177.78581842 -1.4609375 144.35205078 C-1.88890625 143.6042334 -2.316875 142.85641602 -2.7578125 142.0859375 C-3.13180176 141.42770996 -3.50579102 140.76948242 -3.89111328 140.09130859 C-4.95891021 138.26977631 -4.95891021 138.26977631 -6.9375 136.4375 C-9.86008537 135.79644028 -9.86008537 135.79644028 -12.9375 136.4375 C-15.08200961 138.7519296 -15.08200961 138.7519296 -16.75 142.125 C-17.52668507 143.50688083 -18.30409504 144.88835436 -19.08203125 146.26953125 C-19.52369629 147.07213379 -19.96536133 147.87473633 -20.42041016 148.70166016 C-23.51529227 154.2828074 -26.72509323 159.79843518 -29.9375 165.3125 C-30.30031067 165.93593292 -30.66312134 166.55936584 -31.03692627 167.20169067 C-48.17671569 196.570791 -68.47839555 224.10549598 -90.89306641 249.65942383 C-94.17086068 253.42433315 -97.08504831 257.33968444 -99.9375 261.4375 C-98.85819214 261.84693848 -98.85819214 261.84693848 -97.75708008 262.26464844 C-94.9841198 263.41810771 -92.4427063 264.73488687 -89.82421875 266.203125 C-88.83607178 266.75613281 -87.8479248 267.30914062 -86.82983398 267.87890625 C-85.77223877 268.47574219 -84.71464355 269.07257813 -83.625 269.6875 C-82.51777588 270.31011719 -81.41055176 270.93273437 -80.26977539 271.57421875 C-70.78874918 276.92238648 -61.37352061 282.38014998 -51.98828125 287.89453125 C-47.72900022 290.39632496 -43.45383187 292.86824721 -39.16796875 295.32421875 C-38.06267822 295.96037109 -36.9573877 296.59652344 -35.81860352 297.25195312 C-33.69064475 298.47604397 -31.55973404 299.69502121 -29.42553711 300.90820312 C-28.47300049 301.45798828 -27.52046387 302.00777344 -26.5390625 302.57421875 C-25.69682129 303.05592529 -24.85458008 303.53763184 -23.98681641 304.03393555 C-21.9375 305.4375 -21.9375 305.4375 -19.9375 308.4375 C-19.67743778 310.9322567 -19.67743778 310.9322567 -19.66334534 313.96566772 C-19.65337021 315.11530502 -19.64339508 316.26494232 -19.63311768 317.44941711 C-19.632453 318.71182724 -19.63178833 319.97423737 -19.63110352 321.27490234 C-19.62348254 322.61697349 -19.61505515 323.95904026 -19.60588074 325.30110168 C-19.58392263 328.94784607 -19.57513511 332.59450661 -19.57005429 336.24130964 C-19.56641227 338.51967458 -19.56017302 340.7980175 -19.5530529 343.07637405 C-19.52855385 351.0248842 -19.51550553 358.97332903 -19.51196289 366.921875 C-19.50832722 374.33092798 -19.47843118 381.73956679 -19.43655831 389.14849317 C-19.40186815 395.50952779 -19.38641468 401.87042508 -19.38571686 408.23155367 C-19.38492359 412.03077698 -19.37616312 415.8295785 -19.34771919 419.62870407 C-19.32155974 423.20265742 -19.31932046 426.77583867 -19.33537483 430.34984398 C-19.33805643 432.28478716 -19.31599103 434.21971515 -19.29318237 436.15452576 C-19.36507589 444.6612829 -19.36507589 444.6612829 -22.29966736 448.64064026 C-25.09567396 450.54524619 -27.85973066 452.34931293 -30.8125 454.00390625 C-31.95356201 454.6489209 -33.09462402 455.29393555 -34.27026367 455.95849609 C-35.49266685 456.63901344 -36.71507914 457.31951442 -37.9375 458 C-39.1897122 458.70565073 -40.44141713 459.41220236 -41.69262695 460.11962891 C-44.83694201 461.895553 -47.985759 463.66329581 -51.1362915 465.42816162 C-55.80573471 468.044765 -60.46694233 470.67570077 -65.125 473.3125 C-66.00865234 473.80564697 -66.89230469 474.29879395 -67.80273438 474.80688477 C-68.60388672 475.25990967 -69.40503906 475.71293457 -70.23046875 476.1796875 C-70.9268042 476.5701123 -71.62313965 476.96053711 -72.34057617 477.36279297 C-74.10321011 478.35863111 -74.10321011 478.35863111 -74.9375 480.4375 C-74.07769531 480.70949219 -73.21789062 480.98148437 -72.33203125 481.26171875 C-68.989367 482.41953456 -65.84505163 483.78844363 -62.625 485.25 C-30.89245644 499.17968489 5.26230041 499.91605363 37.65771484 487.7043457 C47.9713134 483.65874973 57.39245178 478.71417798 66.71875 472.734375 C70.02431544 470.90529546 72.34932036 470.9649135 76.0625 471.4375 C78.5 473 78.5 473 80.0625 475.4375 C80.625 478.875 80.625 478.875 80.0625 482.4375 C69.24524948 494.78897456 50.42204105 502.04995952 35.0625 506.75 C34.31734131 506.98025879 33.57218262 507.21051758 32.80444336 507.44775391 C19.60040461 511.2611038 6.46502998 512.94741441 -7.23974609 512.82861328 C-9.4378049 512.81249776 -11.6340264 512.82860264 -13.83203125 512.84765625 C-27.59210437 512.86907062 -40.9016751 510.77825501 -54.0625 506.6875 C-54.89668457 506.43218506 -55.73086914 506.17687012 -56.59033203 505.91381836 C-61.82309453 504.255224 -66.84294494 502.32872238 -71.8125 500 C-72.4211792 499.72293213 -73.0298584 499.44586426 -73.65698242 499.16040039 C-76.75907264 497.69209165 -79.46933797 496.08840395 -82.12890625 493.9453125 C-87.09381925 490.37077279 -87.09381925 490.37077279 -92.9375 489.4375 C-100.66438264 492.11320117 -107.43875836 497.01566507 -114.15771484 501.57617188 C-117.75815102 503.9870032 -121.46720125 506.14198497 -125.25 508.25 C-126.29800781 508.85457031 -127.34601563 509.45914062 -128.42578125 510.08203125 C-134.37746518 513.29390422 -140.33239663 513.24890278 -146.9375 512.4375 C-151.9560742 510.71863834 -156.3843133 508.11266304 -160.9375 505.4375 C-162.68336668 504.43059576 -164.42947858 503.42411665 -166.17578125 502.41796875 C-170.23419374 500.06790878 -174.2798778 497.69722688 -178.3203125 495.31640625 C-184.57133115 491.63961128 -190.86178425 488.03465964 -197.16415405 484.44702148 C-209.60499343 477.36476286 -222.00299129 470.21190775 -234.34472656 462.95800781 C-236.75409588 461.54505564 -239.16923671 460.1425483 -241.5859375 458.7421875 C-242.93258559 457.95362673 -244.27896371 457.16460463 -245.625 456.375 C-246.74261719 455.72402344 -247.86023438 455.07304687 -249.01171875 454.40234375 C-254.85191743 450.48028776 -258.64509418 446.07247592 -260.9375 439.4375 C-261.49954327 435.34719463 -261.48469243 431.30548723 -261.45507812 427.18164062 C-261.4620874 425.97412643 -261.46909668 424.76661224 -261.47631836 423.52250671 C-261.49084582 420.23100586 -261.48752732 416.94015484 -261.47480202 413.64866447 C-261.4646209 410.19174794 -261.4740818 406.73487247 -261.48034668 403.2779541 C-261.48760832 397.47444961 -261.47807462 391.67114923 -261.45898438 385.86767578 C-261.43721825 379.17375088 -261.44427069 372.48031342 -261.46629 365.78640032 C-261.48448657 360.02221289 -261.48698164 354.25817156 -261.47653532 348.49396467 C-261.47032364 345.05866483 -261.46940005 341.62359355 -261.48268127 338.18830872 C-261.49286255 334.35632582 -261.4773213 330.52527317 -261.45507812 326.69335938 C-261.46317505 325.56584763 -261.47127197 324.43833588 -261.47961426 323.2766571 C-261.39777439 315.6493643 -260.23307438 310.31852026 -255.16601562 304.35131836 C-249.90228811 299.98533001 -244.3711462 296.39247921 -238.4375 293 C-237.08978516 292.18885742 -237.08978516 292.18885742 -235.71484375 291.36132812 C-230.1491538 288.15720822 -226.37314016 286.61867971 -219.9375 287.4375 C-217.4375 289 -217.4375 289 -215.9375 291.4375 C-215.375 294.875 -215.375 294.875 -215.9375 298.4375 C-220.1255772 303.67697734 -225.82034131 306.44129229 -231.625 309.625 C-233.52630536 310.6781678 -235.42612137 311.73403021 -237.32421875 312.79296875 C-238.16170654 313.25340576 -238.99919434 313.71384277 -239.86206055 314.18823242 C-242.05589696 315.39512337 -242.05589696 315.39512337 -243.9375 317.4375 C-244.24988601 319.61561722 -244.24988601 319.61561722 -244.21165466 322.16879272 C-244.22162979 323.16704575 -244.23160492 324.16529877 -244.24188232 325.19380188 C-244.24287933 326.84269661 -244.24287933 326.84269661 -244.24389648 328.52490234 C-244.25222 329.67944412 -244.26054352 330.8339859 -244.26911926 332.02351379 C-244.29330158 335.85685556 -244.30200141 339.69002745 -244.30859375 343.5234375 C-244.31529055 345.5082645 -244.32198942 347.4930915 -244.32902867 349.47791731 C-244.35051554 355.72226437 -244.35983694 361.96655705 -244.36303711 368.2109375 C-244.36667242 374.65378526 -244.39656369 381.09615663 -244.43844169 387.53885877 C-244.47312531 393.06844417 -244.48858521 398.59787157 -244.48928314 404.12756503 C-244.49007671 407.43106963 -244.50120844 410.73397872 -244.52728081 414.03739548 C-244.5540497 417.72245837 -244.54941167 421.40619907 -244.53686523 425.09130859 C-244.55169952 426.18652328 -244.56653381 427.28173798 -244.58181763 428.41014099 C-244.65867986 434.29378406 -244.65867986 434.29378406 -241.55889893 439.04707336 C-240.26130646 439.73533455 -240.26130646 439.73533455 -238.9375 440.4375 C-238.09872314 440.9631958 -237.25994629 441.4888916 -236.39575195 442.03051758 C-235.49816162 442.54251709 -234.60057129 443.0545166 -233.67578125 443.58203125 C-232.65291016 444.16855469 -231.63003906 444.75507813 -230.57617188 445.359375 C-228.9297168 446.29523438 -228.9297168 446.29523438 -227.25 447.25 C-226.08763283 447.91491412 -224.92552819 448.58028737 -223.76367188 449.24609375 C-221.3520854 450.6275913 -218.93938656 452.00711565 -216.52587891 453.38525391 C-210.98579078 456.55088536 -205.4625236 459.74567609 -199.9375 462.9375 C-197.78264468 464.18115004 -195.62769634 465.42463891 -193.47265625 466.66796875 C-192.40160645 467.28591309 -191.33055664 467.90385742 -190.22705078 468.54052734 C-186.85911948 470.48269939 -183.4902104 472.42316627 -180.12109375 474.36328125 C-179.00065674 475.009021 -177.88021973 475.65476074 -176.72583008 476.32006836 C-174.51707004 477.59221758 -172.30729423 478.86260503 -170.09643555 480.13110352 C-165.28497105 482.89764946 -160.49618894 485.68571243 -155.7734375 488.6015625 C-154.6124353 489.31155396 -154.6124353 489.31155396 -153.42797852 490.03588867 C-152.03475699 490.89249892 -150.648954 491.76137081 -149.27319336 492.64575195 C-144.92350156 495.31006033 -141.99027416 496.29381225 -136.9375 495.4375 C-133.19181016 493.72960253 -129.74588769 491.60370595 -126.25 489.4375 C-124.10121875 488.14423971 -121.95143796 486.85263906 -119.80078125 485.5625 C-118.67881348 484.88445312 -117.5568457 484.20640625 -116.40087891 483.5078125 C-111.22136242 480.39530794 -105.96205386 477.42252107 -100.70626831 474.44134521 C-85.37867237 465.78564718 -85.37867237 465.78564718 -70.23405075 456.81832504 C-65.13648613 453.75341482 -60.10340254 451.00194745 -54.62243652 448.68222046 C-43.27825964 443.78251234 -43.27825964 443.78251234 -35.60879517 434.61310577 C-33.56029814 426.38048475 -34.18141318 418.0006239 -34.59375 409.6015625 C-34.65204133 406.90888177 -34.67389077 404.2162253 -34.69665527 401.52304077 C-34.77081664 395.18982026 -34.96702213 388.8667269 -35.20904303 382.53793943 C-35.47878406 375.3251674 -35.60960407 368.11186907 -35.72973347 360.89529729 C-35.97957043 346.07088579 -36.40074553 331.25436996 -36.9375 316.4375 C-37.71696991 315.99241592 -38.49643982 315.54733185 -39.29953003 315.08876038 C-42.25960599 313.39836917 -45.21955032 311.70774792 -48.17941284 310.01698303 C-49.44771342 309.29254944 -50.71606275 308.5682012 -51.98446655 307.84394836 C-63.91122511 301.03368466 -75.81074672 294.17700954 -87.70214844 287.30517578 C-90.98973929 285.40734375 -94.27968856 283.51366129 -97.5703125 281.62109375 C-98.66633789 280.99017822 -99.76236328 280.3592627 -100.89160156 279.70922852 C-103.06730678 278.45715045 -105.24372528 277.20631091 -107.42089844 275.95678711 C-112.75731958 272.88545092 -118.06117914 269.77243958 -123.3203125 266.5703125 C-124.8357666 265.65306396 -124.8357666 265.65306396 -126.38183594 264.71728516 C-128.29008213 263.55841189 -130.19215972 262.38929953 -132.08691406 261.20849609 C-132.9322168 260.69625488 -133.77751953 260.18401367 -134.6484375 259.65625 C-135.38368652 259.20185547 -136.11893555 258.74746094 -136.87646484 258.27929688 C-139.4139768 257.24289066 -140.41032985 257.46441608 -142.9375 258.4375 C-145.55906837 259.7864909 -148.12358078 261.17366633 -150.6875 262.625 C-151.84125122 263.27190796 -151.84125122 263.27190796 -153.01831055 263.93188477 C-170.46264799 273.73030665 -170.46264799 273.73030665 -187.5690918 284.09790039 C-190.64644816 285.83848944 -192.4497343 285.9461325 -195.9375 285.4375 C-198.8125 283.9375 -198.8125 283.9375 -200.9375 281.4375 C-201.88077177 276.03512533 -201.88077177 276.03512533 -200.9375 273.4375 C-195.82381695 268.28040707 -189.34164855 265.044405 -183.0625 261.5 C-180.73778908 260.17663453 -178.41358948 258.85240028 -176.08984375 257.52734375 C-175.49953873 257.19158325 -174.9092337 256.85582275 -174.30104065 256.5098877 C-170.19868877 254.17228731 -166.12700172 251.7883683 -162.06640625 249.37890625 C-160.98278809 248.73751709 -159.89916992 248.09612793 -158.78271484 247.43530273 C-156.71610152 246.2096192 -154.65249156 244.97885402 -152.59228516 243.74243164 C-151.65819824 243.19063232 -150.72411133 242.63883301 -149.76171875 242.0703125 C-148.54101685 241.34158936 -148.54101685 241.34158936 -147.2956543 240.59814453 C-144.78245947 239.36119162 -142.71943025 238.74308868 -139.9375 238.4375 C-133.73097877 240.5822387 -128.22763288 244.07458917 -122.63476562 247.47265625 C-121.95736328 247.86839844 -121.27996094 248.26414063 -120.58203125 248.671875 C-119.97721924 249.03506836 -119.37240723 249.39826172 -118.74926758 249.77246094 C-116.4079598 250.63187643 -115.241289 250.32147763 -112.9375 249.4375 C-110.79882993 247.51876695 -110.79882993 247.51876695 -108.75 245.0625 C-107.95851562 244.15113281 -107.16703125 243.23976562 -106.3515625 242.30078125 C-98.81569569 233.36260912 -91.50003609 224.23987868 -84.25146484 215.06738281 C-83.04640495 213.57258909 -81.78533765 212.12340207 -80.51953125 210.6796875 C-79.73642578 209.56980469 -79.73642578 209.56980469 -78.9375 208.4375 C-80.09424093 204.96727721 -80.54139255 204.80866553 -83.62109375 203.16796875 C-84.37970703 202.75691895 -85.13832031 202.34586914 -85.91992188 201.92236328 C-87.13518555 201.28016846 -87.13518555 201.28016846 -88.375 200.625 C-90.02003553 199.73139645 -91.6645702 198.83687023 -93.30859375 197.94140625 C-94.10507324 197.51102051 -94.90155273 197.08063477 -95.72216797 196.63720703 C-98.47958626 195.14393466 -101.22000951 193.62735829 -103.9375 192.0625 C-105.05125 191.43214844 -105.05125 191.43214844 -106.1875 190.7890625 C-108.30416755 189.15431479 -108.92808294 187.90660666 -109.9375 185.4375 C-110.19476891 183.14321613 -110.19476891 183.14321613 -110.20492554 180.57527161 C-110.21772049 179.10984924 -110.21772049 179.10984924 -110.23077393 177.61482239 C-110.22941437 176.01654854 -110.22941437 176.01654854 -110.22802734 174.38598633 C-110.23474457 173.2586911 -110.24146179 172.13139587 -110.24838257 170.96994019 C-110.26740773 167.2364259 -110.27128943 163.50309103 -110.2734375 159.76953125 C-110.27986352 157.17363918 -110.28659173 154.57774784 -110.29360962 151.9818573 C-110.30559459 146.53532933 -110.30937493 141.08887253 -110.30810547 135.64233398 C-110.30690606 129.36320203 -110.32796822 123.08441492 -110.3595928 116.80537015 C-110.38899294 110.75052377 -110.39607887 104.69586314 -110.39488602 98.6409359 C-110.39724249 96.07218711 -110.40606856 93.50343564 -110.42155075 90.93473244 C-110.44121167 87.33486244 -110.43537063 83.73587139 -110.42333984 80.13598633 C-110.43457886 79.08059158 -110.44581787 78.02519684 -110.45739746 76.93782043 C-110.39659469 69.75477286 -109.31937687 63.25758541 -104.4118557 57.7141695 C-99.41955493 52.99229509 -93.07122218 49.84009618 -87.125 46.5 C-85.38162455 45.50772306 -83.63825558 44.51543448 -81.89529419 43.52243042 C-80.09602174 42.4985303 -78.29497255 41.47781199 -76.49365234 40.45751953 C-70.95604144 37.31702381 -65.44850358 34.12436891 -59.9375 30.9375 C-57.78920659 29.69766696 -55.64076836 28.45808482 -53.4921875 27.21875 C-51.88682129 26.29255859 -51.88682129 26.29255859 -50.24902344 25.34765625 C-47.40110809 23.70491888 -44.55296232 22.06258264 -41.70465088 20.42053223 C-39.95408759 19.41130896 -38.20359589 18.40196164 -36.453125 17.39257812 C-34.27357835 16.1358234 -32.09390168 14.87929414 -29.9140625 13.62304688 C-28.41359375 12.75776367 -28.41359375 12.75776367 -26.8828125 11.875 C-25.90989258 11.31425781 -24.93697266 10.75351563 -23.93457031 10.17578125 C-21.8249668 8.95222496 -19.72060255 7.7196129 -17.62011719 6.48046875 C-16.54665039 5.84753906 -15.47318359 5.21460938 -14.3671875 4.5625 C-13.39765137 3.98757812 -12.42811523 3.41265625 -11.42919922 2.8203125 C-7.55861087 0.67226112 -4.37611277 0.17504451 0 0 Z M-12.8125 62.25 C-14.03847836 62.99373166 -15.26645941 63.73417126 -16.49633789 64.47143555 C-19.0426828 66.00214219 -21.57878326 67.54807495 -24.10888672 69.10546875 C-30.1190278 72.78860404 -36.25509709 76.25372133 -42.375 79.75 C-44.49961966 80.9736614 -46.62338569 82.19880675 -48.74609375 83.42578125 C-50.07338501 84.19208862 -50.07338501 84.19208862 -51.42749023 84.97387695 C-52.25579346 85.45687256 -53.08409668 85.93986816 -53.9375 86.4375 C-54.79994324 86.82666092 -55.66238647 87.21582184 -56.55096436 87.61677551 C-59.22890629 89.25428284 -59.22890629 89.25428284 -59.59260559 92.38412476 C-59.60563217 93.58815948 -59.61865875 94.79219421 -59.63208008 96.03271484 C-59.64566055 96.69811783 -59.65924103 97.36352081 -59.67323303 98.04908752 C-59.71054162 100.24942333 -59.71056413 102.44781338 -59.70703125 104.6484375 C-59.7180192 106.17917645 -59.7300528 107.70990822 -59.74308777 109.2406311 C-59.76400498 112.45034854 -59.76526937 115.65938105 -59.75415039 118.86914062 C-59.74246724 122.97825823 -59.78993183 127.0842795 -59.85361195 131.19283104 C-59.89424911 134.35518505 -59.89797333 137.51679516 -59.89121056 140.67937088 C-59.89341452 142.19366207 -59.90828743 143.70799069 -59.93616676 145.22202682 C-60.38376831 153.38514861 -60.38376831 153.38514861 -57.19760132 160.50372314 C-53.98864256 162.61210664 -51.79284947 163.4375 -47.9375 163.4375 C-46.32188416 161.37540612 -46.32188416 161.37540612 -44.86328125 158.64453125 C-43.99110962 157.11844238 -43.99110962 157.11844238 -43.10131836 155.56152344 C-42.4903833 154.4687207 -41.87944824 153.37591797 -41.25 152.25 C-39.98780486 150.04249643 -38.72478985 147.83546144 -37.4609375 145.62890625 C-36.8534668 144.56043457 -36.24599609 143.49196289 -35.62011719 142.39111328 C-33.57432413 138.79999251 -31.49962785 135.23261659 -29.375 131.6875 C-28.81683594 130.74390625 -28.25867188 129.8003125 -27.68359375 128.828125 C-24.92489444 125.05111387 -21.36065622 122.04517855 -16.9375 120.4375 C-13.6953125 120.13671875 -13.6953125 120.13671875 -10.0625 120.125 C-8.86882812 120.10824219 -7.67515625 120.09148437 -6.4453125 120.07421875 C-2.62219029 120.47015457 -0.26206115 121.56684238 3.0625 123.4375 C4.0525 123.7675 5.0425 124.0975 6.0625 124.4375 C7.05688477 126.15966797 7.05688477 126.15966797 8.0625 128.4375 C10.33597941 132.50141725 12.67247244 136.52934054 15 140.5625 C15.33242706 141.13909363 15.66485413 141.71568726 16.00735474 142.30975342 C21.86067446 152.45475625 27.88026063 162.4893643 34.0625 172.4375 C36.07018343 171.7943424 38.0675829 171.11922589 40.0625 170.4375 C40.83799194 170.19922485 41.61348389 169.96094971 42.41247559 169.7154541 C49.34178542 167.39667749 55.68572258 164.48220094 60.0625 158.4375 C63.26897072 147.961459 62.0392738 136.42601088 61.43579102 125.62774658 C61.22960873 121.54686845 61.13953378 117.46351176 61.0390625 113.37890625 C60.82576295 105.39161028 60.4854725 97.4164302 60.0625 89.4375 C59.34885284 89.0259819 58.63520569 88.61446381 57.89993286 88.19047546 C54.58163302 86.27688454 51.26343268 84.36312119 47.9453125 82.44921875 C47.05015112 81.93289163 47.05015112 81.93289163 46.13690567 81.40613365 C39.45989394 77.55459668 32.78394562 73.70129979 26.1171875 69.83203125 C25.06402344 69.22166016 24.01085937 68.61128906 22.92578125 67.98242188 C20.86232345 66.78615582 18.79988621 65.58812824 16.73828125 64.38867188 C14.73261602 63.22769544 12.71744027 62.082914 10.69091797 60.95874023 C8.0625 59.4375 8.0625 59.4375 6.00048828 57.88696289 C-0.90463033 53.09688517 -6.60077437 58.31757906 -12.8125 62.25 Z M97.07421875 195.21875 C95.55731445 196.10602783 95.55731445 196.10602783 94.00976562 197.01123047 C92.93404297 197.64689941 91.85832031 198.28256836 90.75 198.9375 C89.66525391 199.57445801 88.58050781 200.21141602 87.46289062 200.86767578 C79.93767712 205.29791443 72.45473714 209.78847586 65.0625 214.4375 C66.6157967 217.90814731 68.6854487 220.66679462 71.0625 223.625 C71.76375 224.50542969 72.465 225.38585937 73.1875 226.29296875 C74.88315433 228.50574008 74.88315433 228.50574008 77.0625 229.4375 C78.98052895 228.54867553 78.98052895 228.54867553 81.0625 227.1640625 C81.86816406 226.6690625 82.67382812 226.1740625 83.50390625 225.6640625 C85.18369041 224.61259455 86.85838017 223.55293488 88.52734375 222.484375 C94.2714143 218.98167163 99.24369228 216.97954194 106.0625 217.4375 C109.625 218.5625 109.625 218.5625 113.0625 220.4375 C113.71927734 220.78925293 114.37605469 221.14100586 115.05273438 221.50341797 C117.40856003 222.78276513 119.73553074 224.1063947 122.0625 225.4375 C123.01253906 225.97536133 123.96257812 226.51322266 124.94140625 227.06738281 C131.54102536 230.81147772 138.10038674 234.62138774 144.64941406 238.453125 C148.06416205 240.43846632 151.49415839 242.39462511 154.9296875 244.34375 C156.5703418 245.28130127 156.5703418 245.28130127 158.24414062 246.23779297 C160.32454219 247.42654842 162.40900407 248.60823482 164.49804688 249.78173828 C169.99031881 252.94083413 174.15031244 255.61312487 177.0625 261.4375 C177.17618286 263.93812207 177.23030591 266.41155531 177.23950195 268.91308594 C177.24607315 269.68402588 177.25264435 270.45496582 177.25941467 271.24926758 C177.27916375 273.80680433 177.2908147 276.36428229 177.30078125 278.921875 C177.30485678 279.79515694 177.3089323 280.66843887 177.31313133 281.5681839 C177.33400038 286.19161239 177.34829765 290.81501114 177.35766602 295.43847656 C177.36872354 300.211269 177.40311329 304.98359433 177.44283772 309.75622177 C177.46900247 313.42800759 177.47735779 317.09968219 177.48094749 320.77155304 C177.48581497 322.53059285 177.49743358 324.28962764 177.51598549 326.04857635 C177.54037125 328.51420394 177.53941318 330.97862431 177.5324707 333.44433594 C177.54528076 334.16768127 177.55809082 334.89102661 177.57128906 335.6362915 C177.51954139 340.69262867 176.20562635 343.52501709 173.0625 347.4375 C171.27001953 348.90966797 171.27001953 348.90966797 169.4453125 349.9296875 C168.42050781 350.51641235 168.42050781 350.51641235 167.375 351.11499023 C166.653125 351.51016846 165.93125 351.90534668 165.1875 352.3125 C164.44242187 352.73668213 163.69734375 353.16086426 162.9296875 353.59790039 C159.93864809 355.29657424 156.92850639 356.95956065 153.91699219 358.62158203 C152.58221728 359.35891958 151.24896175 360.09901649 149.91748047 360.84228516 C148.15932889 361.82109289 146.39239149 362.78407043 144.625 363.74609375 C141.78445803 365.24236759 141.78445803 365.24236759 141.0625 368.4375 C140.84967687 370.0622656 140.67569968 371.69230348 140.52734375 373.32421875 C140.44033203 374.26201172 140.35332031 375.19980469 140.26367188 376.16601562 C140.17666016 377.14248047 140.08964844 378.11894531 140 379.125 C139.90912109 380.11306641 139.81824219 381.10113281 139.72460938 382.11914062 C139.50072321 384.55832148 139.28014761 386.99775587 139.0625 389.4375 C148.26931771 384.63976967 157.29561877 379.61060542 166.21875 374.3046875 C169.93348656 372.09708169 173.66644205 369.92267156 177.40625 367.7578125 C178.49687744 367.12568848 179.58750488 366.49356445 180.71118164 365.84228516 C182.87834927 364.58712653 185.04677812 363.33414265 187.21655273 362.08349609 C188.20598877 361.50937988 189.1954248 360.93526367 190.21484375 360.34375 C191.10163818 359.83134766 191.98843262 359.31894531 192.90209961 358.79101562 C195.16153141 357.48766928 195.16153141 357.48766928 197.0625 355.4375 C197.37412794 353.44399495 197.37412794 353.44399495 197.33665466 351.12380981 C197.35161736 349.76526382 197.35161736 349.76526382 197.36688232 348.37927246 C197.367547 347.38286743 197.36821167 346.3864624 197.36889648 345.35986328 C197.38138176 343.78898453 197.38138176 343.78898453 197.39411926 342.18637085 C197.41829633 338.71014737 197.42700079 335.23411124 197.43359375 331.7578125 C197.44255413 329.34886618 197.45167586 326.93992046 197.46095276 324.53097534 C197.47746624 319.47522629 197.48514718 314.41954364 197.48803711 309.36376953 C197.49342359 302.87783223 197.53110541 296.39251696 197.57678127 289.90675545 C197.60648887 284.92940987 197.6137593 279.95221521 197.61476326 274.97478867 C197.61897799 272.58331325 197.63146204 270.19183788 197.65228081 267.80044937 C197.67906379 264.45780655 197.67440791 261.11662023 197.66186523 257.77392578 C197.67669952 256.78156921 197.69153381 255.78921265 197.70681763 254.76678467 C197.73495785 249.27959769 197.73495785 249.27959769 194.69537354 244.89677429 C193.82652527 244.41521378 192.957677 243.93365326 192.0625 243.4375 C190.71345581 242.60351685 190.71345581 242.60351685 189.3371582 241.75268555 C188.35577881 241.1987915 187.37439941 240.64489746 186.36328125 240.07421875 C185.25001465 239.44249756 184.13674805 238.81077637 182.98974609 238.15991211 C182.40151062 237.82877411 181.81327515 237.49763611 181.20721436 237.15646362 C178.69563685 235.74254564 176.18957484 234.3189735 173.68304443 232.89613342 C172.38633464 232.16022457 171.08933499 231.42482624 169.79205322 230.68992615 C163.48813848 227.11792211 157.21031676 223.50131436 150.9375 219.875 C148.81252047 218.64709999 146.6875204 217.41923553 144.5625 216.19140625 C143.50546875 215.58055176 142.4484375 214.96969727 141.359375 214.34033203 C138.48627225 212.68208538 135.61152499 211.02677159 132.73556519 209.37348938 C130.95252182 208.34847928 129.16982023 207.32287715 127.38720703 206.29711914 C125.15446098 205.0126186 122.92110231 203.72918208 120.68701172 202.44702148 C116.22005741 199.87534324 111.78619202 197.28792635 107.4453125 194.5078125 C102.60832352 191.54753056 101.72646197 192.48730843 97.07421875 195.21875 Z M93.8125 237.4375 C93.1628125 237.8190625 92.513125 238.200625 91.84375 238.59375 C90.24542899 239.53393883 88.65333547 240.48470014 87.0625 241.4375 C89.56147297 246.16673917 92.94140497 249.63390535 96.625 253.4375 C122.06382751 280.25565976 135.33076059 311.23081219 141.0625 347.4375 C148.39948968 344.50270413 155.17515346 340.31163243 162.0625 336.4375 C162.0625 313.3375 162.0625 290.2375 162.0625 266.4375 C152.8225 261.1575 143.5825 255.8775 134.0625 250.4375 C110.6741909 236.83964587 110.6741909 236.83964587 107.51538086 234.76293945 C102.13413364 231.85512706 98.48563372 234.62602118 93.8125 237.4375 Z " fill="#000000" transform="translate(279.9375,-0.4375)"/>
<path d="M0 0 C1.16917969 0.60714844 2.33835937 1.21429688 3.54296875 1.83984375 C4.21328125 2.18708496 4.88359375 2.53432617 5.57421875 2.89208984 C15.6684549 8.20942973 25.49305094 14.0391662 35.33935547 19.79736328 C38.6950826 21.75668272 42.057403 23.70417945 45.421875 25.6484375 C47.54569007 26.87870402 49.66939254 28.10916497 51.79296875 29.33984375 C52.76105469 29.89881348 53.72914063 30.4577832 54.7265625 31.03369141 C57.40787444 32.59356528 60.07043531 34.18152678 62.73046875 35.77734375 C63.56819824 36.25671387 64.40592773 36.73608398 65.26904297 37.22998047 C70.67411583 40.50167493 74.14784066 43.50942119 75.73046875 49.77734375 C76.23652037 54.19071853 76.2450351 58.52731339 76.16796875 62.96484375 C76.17505859 64.12693359 76.18214844 65.28902344 76.18945312 66.48632812 C76.11738566 76.12673683 76.11738566 76.12673683 72.73046875 80.77734375 C69.63873123 82.32321251 67.13617323 82.07093896 63.73046875 81.77734375 C60.93112983 79.67566712 59.85267026 78.51712278 59.27636719 75.02832031 C59.29731445 74.0019043 59.31826172 72.97548828 59.33984375 71.91796875 C59.35273438 70.80292969 59.365625 69.68789063 59.37890625 68.5390625 C59.42917969 66.80076172 59.42917969 66.80076172 59.48046875 65.02734375 C59.49851563 63.85300781 59.5165625 62.67867188 59.53515625 61.46875 C59.58227755 58.57079035 59.6480557 55.67447957 59.73046875 52.77734375 C59.01600586 52.50728516 58.30154297 52.23722656 57.56542969 51.95898438 C54.70183461 50.76540875 52.07577982 49.38907852 49.37109375 47.87109375 C48.3464502 47.29721924 47.32180664 46.72334473 46.26611328 46.13208008 C45.18185059 45.52001709 44.09758789 44.9079541 42.98046875 44.27734375 C41.85882324 43.64658936 40.73717773 43.01583496 39.58154297 42.3659668 C33.307301 38.82765414 27.06021678 35.24851331 20.85546875 31.58984375 C20.19635498 31.20691162 19.53724121 30.82397949 18.8581543 30.42944336 C15.10373577 28.23604116 11.44657602 25.94308561 7.8203125 23.54296875 C6.98290527 23.00953857 6.14549805 22.4761084 5.28271484 21.92651367 C3.66678713 20.89671232 2.07017592 19.83570382 0.49853516 18.73950195 C-1.80676995 17.29849722 -3.60606985 16.3385508 -6.26953125 15.77734375 C-10.04513375 16.73793191 -13.01612337 18.68115331 -16.26953125 20.77734375 C-18.03755958 21.79006906 -19.80847133 22.7977748 -21.58203125 23.80078125 C-23.47960389 24.91501193 -25.37536459 26.03233276 -27.26953125 27.15234375 C-29.36942469 28.38604152 -31.4696996 29.61909016 -33.5703125 30.8515625 C-34.65779785 31.49013184 -35.7452832 32.12870117 -36.86572266 32.78662109 C-43.82431906 36.85636683 -50.81572282 40.86944399 -57.80273438 44.89013672 C-58.83720703 45.48584473 -59.87167969 46.08155273 -60.9375 46.6953125 C-61.84781982 47.21891357 -62.75813965 47.74251465 -63.69604492 48.28198242 C-65.47409648 49.31514491 -67.23392775 50.3800807 -68.9777832 51.4699707 C-71.26953125 52.77734375 -71.26953125 52.77734375 -73.26953125 52.77734375 C-72.93953125 78.18734375 -72.60953125 103.59734375 -72.26953125 129.77734375 C-59.89453125 136.70734375 -59.89453125 136.70734375 -47.26953125 143.77734375 C-43.07092597 146.19988148 -38.88298769 148.63015528 -34.70703125 151.08984375 C-33.7236377 151.65598389 -32.74024414 152.22212402 -31.72705078 152.80541992 C-27.27795496 155.37203802 -22.92027165 157.96769754 -18.703125 160.90234375 C-11.86196597 165.72572207 -11.86196597 165.72572207 -3.78125 166.11328125 C-0.64125445 164.61262653 2.08330267 163.00238131 4.92333984 161.01708984 C7.35185539 159.35105338 9.88697556 157.91097888 12.44189453 156.44921875 C14.5562867 155.23375978 16.64979393 153.98729412 18.7421875 152.734375 C25.99101221 148.41461186 33.3249248 144.2395628 40.64550781 140.04296875 C45.27771134 137.37990917 49.88319333 134.7106777 54.3828125 131.828125 C57.73046875 129.77734375 57.73046875 129.77734375 59.73046875 129.77734375 C59.69119263 128.726073 59.69119263 128.726073 59.65112305 127.65356445 C59.54693335 124.46588725 59.48207292 121.27856849 59.41796875 118.08984375 C59.35512695 116.4356543 59.35512695 116.4356543 59.29101562 114.74804688 C59.1677648 106.58884253 59.1677648 106.58884253 61.9921875 102.515625 C64.72205614 100.78268414 65.72523829 100.14905179 68.85546875 100.65234375 C69.51804688 100.73226562 70.180625 100.8121875 70.86328125 100.89453125 C73.65830208 102.21602645 74.36143613 104.04662488 75.73046875 106.77734375 C76.33828647 111.03059875 76.19415554 115.29759067 76.16796875 119.58984375 C76.18794922 120.74033203 76.20792969 121.89082031 76.22851562 123.07617188 C76.22400714 130.94346993 75.47616361 137.00156298 69.78515625 142.73828125 C63.77484273 146.63744522 57.59287813 150.15891783 51.30981445 153.59545898 C44.73745853 157.19039415 38.2569543 160.92889055 31.79296875 164.71484375 C30.78322998 165.30555664 29.77349121 165.89626953 28.7331543 166.50488281 C26.71605975 167.68544734 24.6992113 168.86643242 22.68261719 170.04785156 C18.09755974 172.73397023 13.51018897 175.41598865 8.91796875 178.08984375 C8.1297876 178.55189209 7.34160645 179.01394043 6.52954102 179.48999023 C5.80565186 179.91094971 5.0817627 180.33190918 4.3359375 180.765625 C3.70840576 181.13212158 3.08087402 181.49861816 2.43432617 181.8762207 C-1.97664909 184.20906348 -6.41348618 184.53279849 -11.26953125 183.77734375 C-19.33908774 180.43831653 -26.89553407 175.78642409 -34.39453125 171.33984375 C-36.48395378 170.10996121 -38.57381388 168.8808218 -40.6640625 167.65234375 C-41.73994629 167.01941406 -42.81583008 166.38648438 -43.92431641 165.734375 C-47.346493 163.73231927 -50.77972979 161.75025503 -54.21875 159.77734375 C-55.08173706 159.2818528 -55.08173706 159.2818528 -55.9621582 158.77635193 C-58.7317685 157.18665364 -61.5028158 155.59953788 -64.27587891 154.01586914 C-86.42983833 141.29642252 -86.42983833 141.29642252 -89.26953125 132.77734375 C-89.3810116 130.15800056 -89.43717447 127.56455344 -89.4465332 124.94458008 C-89.45639 123.74887894 -89.45639 123.74887894 -89.46644592 122.52902222 C-89.4861663 119.88913883 -89.49784005 117.24931236 -89.5078125 114.609375 C-89.51188803 113.70640875 -89.51596355 112.8034425 -89.52016258 111.87311363 C-89.54102013 107.09176233 -89.55532198 102.31043968 -89.56469727 97.52905273 C-89.5757479 92.60067306 -89.6101331 87.67274661 -89.64986897 82.74452686 C-89.67607117 78.94656052 -89.6843924 75.14870146 -89.68797874 71.35065269 C-89.6928371 69.53465408 -89.7044296 67.71866001 -89.72301674 65.90275002 C-89.74748044 63.35383321 -89.74643005 60.80607942 -89.73950195 58.25708008 C-89.75231201 57.51444412 -89.76512207 56.77180817 -89.77832031 56.00666809 C-89.72429123 50.52085477 -88.22908025 46.3996328 -85.26953125 41.77734375 C-83.36938477 39.94726562 -83.36938477 39.94726562 -81.3359375 38.74609375 C-80.15088623 38.02873047 -80.15088623 38.02873047 -78.94189453 37.296875 C-78.06001465 36.79542969 -77.17813477 36.29398437 -76.26953125 35.77734375 C-75.29097168 35.20371094 -74.31241211 34.63007813 -73.30419922 34.0390625 C-69.95281008 32.09266502 -66.58235126 30.18174417 -63.20703125 28.27734375 C-60.71243411 26.8639265 -58.21929543 25.44795201 -55.7265625 24.03125 C-54.78831635 23.49843163 -54.78831635 23.49843163 -53.83111572 22.95484924 C-48.67382439 20.02058162 -43.55506954 17.02324736 -38.44335938 14.01025391 C-23.34320015 5.11799166 -23.34320015 5.11799166 -16.20703125 1.40234375 C-15.20542969 0.87898438 -14.20382813 0.355625 -13.171875 -0.18359375 C-8.37928004 -1.89938145 -4.75808 -1.7793059 0 0 Z " fill="#000000" transform="translate(146.26953125,285.22265625)"/>
</svg>
