<?xml version="1.0" encoding="UTF-8"?>
<svg version="1.1" xmlns="http://www.w3.org/2000/svg" width="512" height="512">
<path d="M0 0 C1.51982298 -0.01059839 1.51982298 -0.01059839 3.07034945 -0.02141088 C4.73724948 -0.01778826 4.73724948 -0.01778826 6.43782425 -0.01409245 C7.61982761 -0.01932912 8.80183096 -0.0245658 10.01965261 -0.02996117 C13.30166451 -0.04238223 16.58354389 -0.04580432 19.86557484 -0.04536426 C23.40490619 -0.04701183 26.94419848 -0.06007725 30.48350906 -0.07155704 C38.22323137 -0.09441136 45.96292626 -0.10232818 53.70267773 -0.10738349 C58.53575613 -0.11064014 63.36882658 -0.11716244 68.20190048 -0.12438488 C81.5842844 -0.1439517 94.96666091 -0.16035532 108.34906006 -0.16326141 C109.63374148 -0.16354277 109.63374148 -0.16354277 110.94437607 -0.16382981 C112.68060954 -0.16419606 114.41684302 -0.16455976 116.1530765 -0.16492092 C117.01494182 -0.16510373 117.87680713 -0.16528654 118.76478958 -0.16547489 C119.62770738 -0.16565544 120.49062517 -0.16583599 121.37969199 -0.16602201 C135.36119904 -0.16956344 149.34255206 -0.19658347 163.32400569 -0.23397278 C177.67985676 -0.27205594 192.03563139 -0.29141889 206.39153409 -0.29172093 C214.45133996 -0.29230551 222.5109621 -0.30079802 230.57072067 -0.32971859 C237.43401969 -0.3542327 244.29706797 -0.36151532 251.16039893 -0.34647106 C254.66126197 -0.33930201 258.16162991 -0.34015839 261.66243744 -0.36288166 C265.46088416 -0.38326007 269.25804688 -0.37283615 273.05647659 -0.35466862 C274.15882039 -0.36786858 275.26116418 -0.38106855 276.39691234 -0.39466852 C284.06004859 -0.31090905 288.9445527 1.40800545 294.52037692 6.70272928 C300.43119627 13.21996881 300.30920018 20.18991303 300.30189896 28.50224972 C300.30618408 29.58458889 300.31046921 30.66692806 300.31488419 31.78206539 C300.3206148 34.06655333 300.32113712 36.35105951 300.31679153 38.6355505 C300.31363483 42.1161759 300.33709626 45.59594821 300.36244583 49.07646847 C300.36471939 51.30172782 300.36542206 53.52698944 300.36439896 55.75224972 C300.3736087 56.78582607 300.38281845 57.81940243 300.39230728 58.88429928 C300.3480835 65.84977758 299.76316703 71.94329169 295.13393021 77.50224972 C294.47135208 78.04107784 293.80877396 78.57990597 293.12611771 79.13506222 C292.13998489 79.96650753 292.13998489 79.96650753 291.13393021 80.81474972 C285.57436257 84.58222229 280.61483736 84.52881631 274.10658646 84.45537472 C273.15923126 84.45254482 272.21187607 84.44971493 271.23581314 84.44679928 C268.21995105 84.43563408 265.20438954 84.41053611 262.18861771 84.38506222 C260.13979388 84.37502769 258.09096538 84.36590267 256.04213333 84.35771847 C251.02834623 84.33570671 246.01478288 84.30120193 241.00111771 84.26006222 C241.00111771 89.54006222 241.00111771 94.82006222 241.00111771 100.26006222 C242.33175247 100.24958858 243.66238724 100.23911495 245.03334427 100.22832394 C250.02062105 100.19183111 255.00788629 100.16905621 259.99525833 100.15019894 C262.14436714 100.14020758 264.29346258 100.12660991 266.44252396 100.10918331 C292.36381284 99.90441477 312.83430257 103.44938723 332.00111771 122.26006222 C332.64049271 122.87494503 333.27986771 123.48982784 333.93861771 124.12334347 C350.35373535 141.23463798 350.59199603 163.8343512 350.50282669 185.96904659 C350.50661504 188.65626489 350.51196816 191.34343927 350.51919937 194.03064632 C350.53305327 200.54085493 350.52563421 207.05086811 350.51052379 213.56106722 C350.49356609 221.15969344 350.4968862 228.75827229 350.50061787 236.3569116 C350.50648208 249.92476534 350.49238165 263.49252598 350.46767044 277.06035519 C350.44375394 290.1935287 350.43666805 303.32657786 350.44716263 316.45976925 C350.45859987 330.79810789 350.46046733 345.13638917 350.44606453 359.47472715 C350.44453887 361.00679461 350.44301851 362.53886206 350.44150352 364.07092953 C350.44074571 364.82452435 350.4399879 365.57811918 350.43920712 366.35455021 C350.43448593 371.63761272 350.43630026 376.92064942 350.44056892 382.20371151 C350.44552129 388.65149959 350.43939767 395.09917065 350.41967463 401.5469321 C350.40987619 404.82989239 350.40625086 408.11264136 350.41256714 411.39561558 C350.46636602 443.38302434 350.46636602 443.38302434 343.68861771 457.57256222 C343.38012894 458.24077999 343.07164017 458.90899776 342.75380325 459.59746456 C341.86085698 461.49833861 340.94009747 463.38157577 340.00111771 465.26006222 C339.54994583 466.16369503 339.09877396 467.06732784 338.63393021 467.99834347 C327.23247159 488.60867251 307.77166495 503.11341292 285.37611771 509.69756222 C277.56226085 511.76702787 270.34440077 512.4087084 262.29559708 512.40723324 C261.21624022 512.41090993 260.13688336 512.41458661 259.02481872 512.41837472 C255.40713165 512.42938975 251.78947332 512.43325176 248.171772 512.43706417 C245.57781254 512.44333061 242.98385398 512.44997757 240.38989639 512.45697689 C232.60433782 512.47670373 224.81877802 512.48680395 217.03320071 512.49570468 C213.35993139 512.50009489 209.6866635 512.50545989 206.01339531 512.51069355 C193.78988539 512.52770412 181.56637634 512.54219508 169.34285641 512.54944229 C166.17352357 512.55135196 163.00419075 512.55327232 159.83485794 512.55522823 C158.65338108 512.55595384 158.65338108 512.55595384 157.44803599 512.55669411 C144.70786677 512.56498243 131.96779179 512.59029979 119.22766366 512.62280891 C106.12489597 512.65596857 93.02217602 512.67389918 79.91936618 512.67708653 C72.5719355 512.67924371 65.22464215 512.68787505 57.87725258 512.71354771 C50.95708695 512.7376727 44.03717107 512.7410248 37.11697197 512.73078632 C34.58754658 512.73029303 32.0581087 512.73655194 29.52872086 512.75034237 C1.22823943 512.89590999 -22.53681038 507.29180756 -43.81919479 487.52959347 C-60.9541848 469.68832251 -70.1504394 447.80679633 -70.14605331 423.07915401 C-70.14973 421.96077963 -70.15340669 420.84240524 -70.15719479 419.69014072 C-70.16819863 415.94651612 -70.17206988 412.2029193 -70.17588425 408.45928097 C-70.1821514 405.77325942 -70.18878607 403.08724078 -70.19579697 400.40122128 C-70.21551097 392.34467575 -70.22562079 384.28812907 -70.23452476 376.23156548 C-70.23891565 372.43102532 -70.24428034 368.63048654 -70.24951363 364.82994747 C-70.26652025 352.18519537 -70.28101272 339.54044411 -70.28826237 326.89568233 C-70.29017203 323.6182165 -70.2920924 320.34075068 -70.29404831 317.06328487 C-70.29453205 316.24875898 -70.29501579 315.43423308 -70.29551419 314.59502459 C-70.30380832 301.41061233 -70.32913733 288.22629099 -70.36162899 275.0419184 C-70.39476489 261.48486378 -70.41271698 247.92785527 -70.41590661 234.37075996 C-70.41806558 226.76742757 -70.42672414 219.16422778 -70.45236778 211.56093502 C-70.47416419 205.08367854 -70.48208155 198.60658691 -70.472401 192.12929791 C-70.46788205 188.83011013 -70.47182107 185.53132983 -70.48916245 182.23217487 C-70.5547201 169.01464052 -70.61102125 156.78627673 -65.99888229 144.26006222 C-65.73445989 143.52084026 -65.47003748 142.78161831 -65.19760227 142.01999569 C-59.20026944 126.77568398 -46.11911873 113.94952557 -31.49888229 106.94756222 C-19.67191773 101.83319916 -8.96548479 100.09388318 3.84486771 100.16240597 C4.85456619 100.16382092 5.86426468 100.16523586 6.90456009 100.16669369 C10.10344382 100.1722544 13.30225543 100.18479952 16.50111771 100.19756222 C18.68080419 100.2025823 20.86049178 100.20714431 23.04018021 100.21123409 C28.36052015 100.22221095 33.68080673 100.23944823 39.00111771 100.26006222 C39.00111771 94.98006222 39.00111771 89.70006222 39.00111771 84.26006222 C37.11006302 84.29148312 37.11006302 84.29148312 35.18080521 84.32353878 C30.47698319 84.39626309 25.77321031 84.44197957 21.0689888 84.47978878 C19.03797914 84.49983058 17.00702665 84.52707169 14.97621536 84.56182003 C12.04687214 84.61066636 9.11829571 84.63310565 6.18861771 84.65068722 C5.28933548 84.67133236 4.39005325 84.6919775 3.46352005 84.71324825 C-3.4755868 84.71568519 -8.68311202 83.06374442 -14.02231979 78.54912472 C-14.46833542 77.99998409 -14.91435104 77.45084347 -15.37388229 76.88506222 C-15.83536667 76.34107784 -16.29685104 75.79709347 -16.77231979 75.23662472 C-20.53956507 69.16584092 -20.30572806 62.92223711 -20.29966354 56.01787472 C-20.30394867 54.93553555 -20.3082338 53.85319637 -20.31264877 52.73805904 C-20.31837939 50.45357111 -20.31890171 48.16906493 -20.31455612 45.88457394 C-20.31139942 42.40394853 -20.33486085 38.92417622 -20.36021042 35.44365597 C-20.36248397 33.21839662 -20.36318665 30.99313499 -20.36216354 28.76787472 C-20.37137329 27.73429836 -20.38058304 26.70072201 -20.39007187 25.63582516 C-20.34586581 18.67313869 -19.78100756 12.5391996 -15.09653854 7.01787472 C-14.42493698 6.47904659 -13.75333542 5.94021847 -13.06138229 5.38506222 C-12.05784714 4.55361691 -12.05784714 4.55361691 -11.03403854 3.70537472 C-7.29318039 1.04871921 -4.61963991 0.01029894 0 0 Z M-0.71392441 18.51059628 C-2.31951599 20.69660394 -2.37866486 21.8961069 -2.38706589 24.59209347 C-2.39652237 25.46309689 -2.40597885 26.3341003 -2.41572189 27.23149776 C-2.4096492 28.16904903 -2.40357651 29.1066003 -2.39731979 30.07256222 C-2.40018997 31.03782833 -2.40306015 32.00309444 -2.4060173 32.99761105 C-2.4080589 35.03855126 -2.40252236 37.07951099 -2.38999557 39.12041378 C-2.3739435 42.24813662 -2.38984125 45.37456717 -2.40903854 48.50224972 C-2.40705613 50.48402341 -2.40321249 52.4657963 -2.39731979 54.44756222 C-2.40339249 55.38511349 -2.40946518 56.32266476 -2.41572189 57.28862667 C-2.40626541 58.15963009 -2.39680893 59.03063351 -2.38706589 59.92803097 C-2.38467911 60.69397579 -2.38229233 61.45992062 -2.37983322 62.24907589 C-1.88466706 64.86298834 -1.07417794 65.62112104 1.00111771 67.26006222 C3.2075254 67.70908695 3.2075254 67.70908695 5.70351028 67.63758564 C7.16227081 67.6493205 7.16227081 67.6493205 8.65050125 67.66129243 C10.25684937 67.65125419 10.25684937 67.65125419 11.89564896 67.64101315 C13.03132309 67.64569312 14.16699722 67.65037309 15.33708572 67.65519488 C19.16271333 67.66721148 22.98798711 67.65766142 26.81361771 67.64824581 C29.54808166 67.65065745 32.28253033 67.65753974 35.01698685 67.66417599 C41.68520064 67.67753592 48.3533133 67.67462557 55.02153111 67.66593806 C60.43953979 67.65917079 65.85752007 67.65824065 71.27553177 67.66150951 C72.43094845 67.66219906 72.43094845 67.66219906 73.60970688 67.66290254 C75.17437109 67.66386169 76.7390353 67.66483433 78.30369949 67.66582032 C92.98545345 67.67438083 107.66715127 67.66452973 122.34889603 67.64841922 C134.95435221 67.63501543 147.55972552 67.63734333 160.16518021 67.6511755 C174.79336792 67.66721966 189.4215064 67.67355679 204.04970169 67.66433871 C205.60870233 67.66338303 207.16770299 67.66243992 208.72670364 67.66150951 C209.4938192 67.66104669 210.26093475 67.66058386 211.05129623 67.66010701 C216.46459507 67.65751362 221.87786275 67.66189561 227.29115677 67.66894817 C233.88559605 67.67735047 240.47992817 67.67510993 247.07435513 67.65910594 C250.44084239 67.65120588 253.80700222 67.64976777 257.17351151 67.6580534 C260.8180507 67.66619892 264.46208012 67.6560317 268.10658646 67.64101315 C269.1774852 67.64770531 270.24838394 67.65439748 271.35173416 67.66129243 C272.32424118 67.65346919 273.2967482 67.64564595 274.29872513 67.63758564 C275.14045776 67.63709858 275.9821904 67.63661153 276.84943008 67.63610971 C279.49715764 67.17337 280.38271656 66.36820577 282.00111771 64.26006222 C282.45300663 62.21011634 282.45300663 62.21011634 282.3893013 59.92803097 C282.39875778 59.05702755 282.40821426 58.18602413 282.41795731 57.28862667 C282.41188461 56.3510754 282.40581192 55.41352413 282.39955521 54.44756222 C282.40242538 53.4822961 282.40529556 52.51702999 282.40825272 51.52251339 C282.41029432 49.48157318 282.40475778 47.44061344 282.39223099 45.39971066 C282.37617891 42.27198782 282.39207666 39.14555726 282.41127396 36.01787472 C282.40929154 34.03610103 282.4054479 32.05432814 282.39955521 30.07256222 C282.40866425 28.66623531 282.40866425 28.66623531 282.41795731 27.23149776 C282.40850082 26.36049435 282.39904434 25.48949093 282.3893013 24.59209347 C282.38691452 23.82614864 282.38452774 23.06020382 282.38206863 22.27104855 C281.89180243 19.68300224 281.1160192 18.80215633 279.00111771 17.26006222 C276.0592703 16.99838543 273.3337456 16.91132301 270.39564896 16.96709347 C269.55644409 16.97133831 268.71723923 16.97558315 267.85260391 16.97995663 C265.17261526 16.99674758 262.49337901 17.03439992 259.81361771 17.07256222 C257.99657128 17.08760855 256.17951306 17.10129704 254.36244583 17.11357784 C249.90837995 17.1466524 245.45487639 17.19843709 241.00111771 17.26006222 C240.96353348 18.55424068 240.96353348 18.55424068 240.92518997 19.87456417 C240.83000386 23.0782999 240.73077327 26.28187759 240.62880325 29.48540401 C240.58551552 30.87142204 240.54383607 32.25749128 240.50380325 33.64360714 C240.44595187 35.6369802 240.38181994 37.63016787 240.31752396 39.62334347 C240.26253738 41.4221899 240.26253738 41.4221899 240.20643997 43.25737667 C240.00111771 46.26006222 240.00111771 46.26006222 239.00111771 49.26006222 C237.58678564 49.48369592 236.16944153 49.68832698 234.75111771 49.88506222 C233.96221146 50.00107784 233.17330521 50.11709347 232.36049271 50.23662472 C229.55158389 50.26452779 228.26994024 49.91804792 226.00111771 48.26006222 C224.13096049 44.48408979 223.710761 41.26966039 223.58705521 37.08428097 C223.53363968 35.51939938 223.53363968 35.51939938 223.47914505 33.92290401 C223.44514603 32.61104122 223.411147 31.29917843 223.37611771 29.94756222 C223.25236771 25.76068722 223.12861771 21.57381222 223.00111771 17.26006222 C209.47111771 17.26006222 195.94111771 17.26006222 182.00111771 17.26006222 C181.79119364 26.66856794 181.79119364 26.66856794 181.61317825 36.07768917 C181.56350906 37.83278805 181.56350906 37.83278805 181.51283646 39.62334347 C181.48665237 40.82257442 181.46046829 42.02180538 181.43349075 43.25737667 C181.00111771 46.26006222 181.00111771 46.26006222 179.68397903 48.12798214 C176.38388151 50.34799552 172.48862203 50.41664162 168.62611771 50.01006222 C168.08986771 49.76256222 167.55361771 49.51506222 167.00111771 49.26006222 C165.87928063 45.89455099 165.79310803 43.1694599 165.68471146 39.62334347 C165.64660355 38.45327755 165.60849564 37.28321163 165.56923294 36.07768917 C165.52612991 34.59099728 165.48302689 33.10430538 165.43861771 31.57256222 C165.22205521 24.48787472 165.22205521 24.48787472 165.00111771 17.26006222 C148.50111771 17.26006222 132.00111771 17.26006222 115.00111771 17.26006222 C114.71212444 26.66872871 114.71212444 26.66872871 114.43300247 36.07768917 C114.39489456 37.24775509 114.35678665 38.41782101 114.31752396 39.62334347 C114.28086624 40.82257442 114.24420853 42.02180538 114.20643997 43.25737667 C114.00111771 46.26006222 114.00111771 46.26006222 113.00111771 49.26006222 C111.58678564 49.48369592 110.16944153 49.68832698 108.75111771 49.88506222 C107.96221146 50.00107784 107.17330521 50.11709347 106.36049271 50.23662472 C103.64043981 50.26364511 102.26625932 49.73340654 100.00111771 48.26006222 C98.57843908 45.41470497 98.78139902 42.8978767 98.68471146 39.72099972 C98.64660355 38.54843624 98.60849564 37.37587276 98.56923294 36.16777706 C98.5045784 33.92408321 98.5045784 33.92408321 98.43861771 31.63506222 C98.22205521 24.51943722 98.22205521 24.51943722 98.00111771 17.26006222 C84.47111771 17.26006222 70.94111771 17.26006222 57.00111771 17.26006222 C56.75200262 25.59120294 56.75200262 25.59120294 56.52309036 33.92290401 C56.48748001 34.96615841 56.45186966 36.0094128 56.41518021 37.08428097 C56.38375931 38.1473547 56.35233841 39.21042843 56.31996536 40.30571651 C55.99415524 43.32457432 55.3452064 45.54625729 54.00111771 48.26006222 C51.0146174 50.44250475 48.83348759 50.41188132 45.25111771 49.88506222 C44.45189896 49.77420284 43.65268021 49.66334347 42.82924271 49.54912472 C41.92432083 49.40603878 41.92432083 49.40603878 41.00111771 49.26006222 C39.87928063 45.89455099 39.79310803 43.1694599 39.68471146 39.62334347 C39.64281693 38.324613 39.60092239 37.02588253 39.55775833 35.68779659 C39.51794783 34.31605461 39.47823555 32.94430978 39.43861771 31.57256222 C39.39540935 30.18908576 39.35179432 28.80562195 39.30775833 27.42217159 C39.20153743 24.03490502 39.09949413 20.64756423 39.00111771 17.26006222 C33.64429637 17.18594172 28.28777308 17.13147446 22.93056107 17.0952673 C21.10791703 17.08017462 19.28530935 17.05969827 17.46278763 17.03374386 C14.8439627 16.99738119 12.22561763 16.98034098 9.60658646 16.96709347 C8.7908667 16.95160961 7.97514694 16.93612576 7.1347084 16.92017269 C2.95962225 16.81231852 2.95962225 16.81231852 -0.71392441 18.51059628 Z M57.00111771 84.26006222 C57.00111771 89.54006222 57.00111771 94.82006222 57.00111771 100.26006222 C111.78111771 100.26006222 166.56111771 100.26006222 223.00111771 100.26006222 C223.00111771 94.98006222 223.00111771 89.70006222 223.00111771 84.26006222 C168.22111771 84.26006222 113.44111771 84.26006222 57.00111771 84.26006222 Z M-40.02231979 135.69756222 C-49.79886312 148.4906598 -52.99888229 160.23439362 -52.99888229 176.26006222 C74.38111771 176.26006222 201.76111771 176.26006222 333.00111771 176.26006222 C331.95689785 158.50832461 329.0584708 142.99025935 315.33314896 130.77568722 C303.17244899 121.04712725 290.99398475 117.94785336 275.75554276 117.99936581 C274.54688266 117.99554026 273.33822256 117.99171471 272.0929364 117.98777324 C268.75956527 117.97927489 265.42641613 117.97966349 262.09305167 117.98395383 C258.48968216 117.98642925 254.88633813 117.97739681 251.28297806 117.96991634 C244.23192006 117.95718996 237.18090019 117.95537307 230.12983264 117.95771661 C224.39644154 117.95950222 218.66306197 117.95774492 212.92967224 117.95349216 C212.11256068 117.95289698 211.29544911 117.95230179 210.45357659 117.95168856 C208.79342144 117.95047677 207.13326629 117.94926263 205.47311114 117.94804619 C189.91648145 117.93717861 174.35987346 117.93932945 158.80324255 117.94543103 C144.58486038 117.95059962 130.36654673 117.93934488 116.14817812 117.92033281 C101.53338321 117.90094113 86.91862071 117.89270074 72.30381286 117.89645606 C64.10487034 117.89836607 55.90598614 117.89590009 47.70705414 117.88174152 C40.72725709 117.86980979 33.74755427 117.8684429 26.76775588 117.88053169 C23.20990119 117.8864078 19.65221869 117.88755518 16.09437561 117.87552929 C12.2297191 117.86261865 8.36532152 117.87316507 4.50065994 117.88584042 C3.38711958 117.87846613 2.27357922 117.87109185 1.12629521 117.8634941 C-14.42476766 117.9704881 -29.91161731 123.51787428 -40.02231979 135.69756222 Z M-52.99888229 194.26006222 C-52.99888229 265.87006222 -52.99888229 337.48006222 -52.99888229 411.26006222 C74.38111771 411.26006222 201.76111771 411.26006222 333.00111771 411.26006222 C333.00111771 339.65006222 333.00111771 268.04006222 333.00111771 194.26006222 C205.62111771 194.26006222 78.24111771 194.26006222 -52.99888229 194.26006222 Z M-51.99888229 429.26006222 C-50.00346844 449.21420071 -41.3064529 466.10469838 -25.99888229 479.26006222 C-10.39078968 490.68699151 6.20866803 495.41817294 25.34645462 495.40050411 C26.36288906 495.40347523 27.37932349 495.40644636 28.42655897 495.40950751 C31.81925887 495.41815204 35.21192331 495.41969917 38.60463333 495.42119503 C41.04287668 495.42582627 43.48111932 495.43085134 45.91936111 495.4362402 C52.53545234 495.44933805 59.15153624 495.45584159 65.76763725 495.46025085 C69.90596646 495.46302114 74.04429336 495.46725994 78.182621 495.47175503 C89.6607562 495.48394277 101.13888957 495.49424253 112.6170311 495.49763012 C113.71742637 495.49795947 113.71742637 495.49795947 114.84005186 495.49829547 C115.94294913 495.49862289 115.94294913 495.49862289 117.06812716 495.49895692 C118.55783494 495.49940037 120.04754273 495.49984693 121.53725052 495.50029659 C122.64564959 495.50062874 122.64564959 495.50062874 123.77644056 495.50096759 C135.73469162 495.50491088 147.69288156 495.52235277 159.65110904 495.54565611 C171.955017 495.56943771 184.25889439 495.58183508 196.56282568 495.58299804 C203.46024375 495.58391107 210.3575822 495.58956879 217.25497818 495.60781765 C223.74914334 495.62494017 230.24319822 495.62642067 236.73738098 495.61767864 C239.11080581 495.61691188 241.48423896 495.62120286 243.85764313 495.63113689 C270.7426884 495.73699728 293.09750918 491.81691798 313.00111771 472.26006222 C313.55541458 471.71865597 314.10971146 471.17724972 314.68080521 470.61943722 C325.37850476 459.17000742 330.47437473 444.52749196 332.00111771 429.26006222 C205.28111771 429.26006222 78.56111771 429.26006222 -51.99888229 429.26006222 Z " fill="#000000" transform="translate(115.99888229370117,-0.26006221771240234)"/>
<path d="M0 0 C11 0 11 0 14.4609375 3.26953125 C15.47039153 4.75872747 16.44012334 6.27538958 17.375 7.8125 C17.90319336 8.60970459 18.43138672 9.40690918 18.97558594 10.22827148 C20.09538656 11.92166474 21.19989013 13.62525831 22.29003906 15.33789062 C24.6112164 18.95155677 27.04993115 22.47893001 29.49072266 26.01245117 C31.64677917 29.13762606 33.77454744 32.28154141 35.89941406 35.42797852 C36.90902475 36.96692925 36.90902475 36.96692925 38 38 C38 25.46 38 12.92 38 0 C42.29 0 46.58 0 51 0 C51 22.11 51 44.22 51 67 C41 67 41 67 38.4765625 64.97265625 C37.86554688 64.01230469 37.25453125 63.05195313 36.625 62.0625 C35.89925781 60.97324219 35.17351562 59.88398438 34.42578125 58.76171875 C34.04244629 58.16020996 33.65911133 57.55870117 33.26416016 56.93896484 C31.89372829 54.83700079 30.44952371 52.80371372 28.98046875 50.76953125 C23.62264215 43.33980332 18.73212605 35.88687675 14 28 C13.67 40.54 13.34 53.08 13 66 C8.71 66 4.42 66 0 66 C0 44.22 0 22.44 0 0 Z " fill="#000000" transform="translate(376,276)"/>
<path d="M0 0 C6.64046535 5.43310801 9.50757342 11.80342551 10.75 20.25 C11.69501356 32.55708964 11.94955657 45.22831975 3.75 55.25 C-2.88168955 61.83420729 -8.89978201 64.1276861 -18.25 64.25 C-26.19680209 63.5049873 -32.16471403 61.26353514 -37.9375 55.625 C-45.43884352 45.84602082 -46.21197714 33.20004051 -44.94140625 21.37890625 C-43.50074803 12.18674184 -40.78880307 5.6687768 -33.44921875 -0.2734375 C-22.85486664 -7.38651938 -10.74585095 -5.78622744 0 0 Z M-26 11.5 C-30.41354031 16.89432704 -30.59037035 22.44726444 -30.5625 29.125 C-30.57861328 29.88941406 -30.59472656 30.65382813 -30.61132812 31.44140625 C-30.61636632 37.37640539 -29.76227691 43.00551162 -26.01025391 47.85107422 C-23.28602502 50.48342355 -20.88507499 51.58256264 -17.1875 51.75 C-12.37621139 51.13904272 -9.95162736 49.95162736 -6.5625 46.5625 C-2.1070961 38.71250266 -2.12023639 28.44659623 -4.0625 19.8125 C-5.76111678 14.71664967 -7.52516838 11.02931272 -12.25 8.25 C-17.73229796 6.37447701 -21.62572936 7.9210513 -26 11.5 Z " fill="#000000" transform="translate(233.25,279.75)"/>
<path d="M0 0 C3.6024859 4.01337951 4.81991303 8.6874343 5 14 C4.51093761 20.44105573 3.01998773 24.8473432 -1.3671875 29.625 C-3.13770018 31.11595805 -4.89525872 32.05241085 -7 33 C-6.30519531 33.77859375 -5.61039063 34.5571875 -4.89453125 35.359375 C-1.30886504 39.66470402 1.46122539 44.44128899 4.3125 49.25 C4.86228516 50.16007812 5.41207031 51.07015625 5.97851562 52.0078125 C10 58.74192547 10 58.74192547 10 61 C4.57914707 62.52065485 -0.7858948 63.66473076 -6 61 C-11.45447929 54.77341352 -14.88029431 46.90976987 -18.28759766 39.43017578 C-20.13710834 36.29502183 -20.13710834 36.29502183 -26 35 C-26 43.58 -26 52.16 -26 61 C-30.62 61 -35.24 61 -40 61 C-40 39.55 -40 18.1 -40 -4 C-27.20361995 -7.19909501 -11.11886103 -8.15523267 0 0 Z M-26 7 C-26 12.94 -26 18.88 -26 25 C-17.20802383 25.33150617 -17.20802383 25.33150617 -11 21 C-9.43064406 17.86128812 -9.64798897 15.46144178 -10 12 C-11.66178189 8.83651599 -11.66178189 8.83651599 -15 7 C-18.77147724 6.58683255 -22.18510802 6.77018723 -26 7 Z " fill="#000000" transform="translate(177,281)"/>
<path d="M0 0 C5.58876131 5.0806921 6.63659675 10.55979665 7 18 C6.49248992 23.82761573 5.004961 29.38400603 0.4609375 33.33984375 C-5.63312732 37.97079609 -11.24226908 39.31577607 -18.875 39.125 C-21.22625 39.08375 -23.5775 39.0425 -26 39 C-26 46.26 -26 53.52 -26 61 C-30.62 61 -35.24 61 -40 61 C-40 39.55 -40 18.1 -40 -4 C-9.67727772 -7.36919136 -9.67727772 -7.36919136 0 0 Z M-26 7 C-26 13.6 -26 20.2 -26 27 C-16.64719303 27.59787688 -16.64719303 27.59787688 -9 23 C-7.38948068 19.77896135 -7.55087042 16.49248524 -8 13 C-9.20502816 9.95139887 -9.20502816 9.95139887 -12 8 C-16.99808029 6.33950821 -20.85740032 5.71435008 -26 7 Z " fill="#000000" transform="translate(124,281)"/>
<path d="M0 0 C12.87 0 25.74 0 39 0 C39 4.29 39 8.58 39 13 C30.42 13 21.84 13 13 13 C13 17.62 13 22.24 13 27 C20.92 27 28.84 27 37 27 C37 30.96 37 34.92 37 39 C29.08 39 21.16 39 13 39 C13 43.95 13 48.9 13 54 C21.58 54 30.16 54 39 54 C39 57.96 39 61.92 39 66 C26.13 66 13.26 66 0 66 C0 44.22 0 22.44 0 0 Z " fill="#000000" transform="translate(302,276)"/>
<path d="M0 0 C17.16 0 34.32 0 52 0 C52 4.29 52 8.58 52 13 C45.73 13 39.46 13 33 13 C33 30.49 33 47.98 33 66 C28.38 66 23.76 66 19 66 C19 48.51 19 31.02 19 13 C12.73 13 6.46 13 0 13 C0 8.71 0 4.42 0 0 Z " fill="#000000" transform="translate(244,276)"/>
<path d="M0 0 C4.62 0 9.24 0 14 0 C14 21.78 14 43.56 14 66 C9.38 66 4.76 66 0 66 C0 44.22 0 22.44 0 0 Z " fill="#000000" transform="translate(351,276)"/>
</svg>
